<svg width="44" height="44" viewBox="0 0 44 44" fill="none" xmlns="http://www.w3.org/2000/svg">
<mask id="mask0_158_30" style="mask-type:alpha" maskUnits="userSpaceOnUse" x="0" y="0" width="44" height="44">
<rect width="44" height="44" fill="#D9D9D9"/>
</mask>
<g mask="url(#mask0_158_30)">
</g>
<path d="M8.77555 13.8089C9.76506 13.8089 10.5672 13.0068 10.5672 12.0173C10.5672 11.0277 9.76506 10.2256 8.77555 10.2256C7.78604 10.2256 6.98389 11.0277 6.98389 12.0173C6.98389 13.0068 7.78604 13.8089 8.77555 13.8089Z" stroke="#F7681C" stroke-width="2" stroke-miterlimit="10"/>
<path d="M5.19238 19.7812C5.19238 19.7812 5.78961 17.2071 6.98405 16.6099C8.17849 16.0127 9.37294 16.0127 10.5674 16.6099C11.7618 17.2071 12.359 19.7812 12.359 19.7812" stroke="#F7681C" stroke-width="2" stroke-miterlimit="10" stroke-linecap="round" stroke-linejoin="round"/>
<path d="M36.2839 26.8964C37.2734 26.8964 38.0755 26.0943 38.0755 25.1048C38.0755 24.1153 37.2734 23.3131 36.2839 23.3131C35.2943 23.3131 34.4922 24.1153 34.4922 25.1048C34.4922 26.0943 35.2943 26.8964 36.2839 26.8964Z" stroke="#F7681C" stroke-width="2" stroke-miterlimit="10"/>
<path d="M32.7002 32.8687C32.7002 32.8687 33.2974 30.2947 34.4919 29.6974C35.6863 29.1002 36.8808 29.1002 38.0752 29.6974C39.2696 30.2947 39.8669 32.8687 39.8669 32.8687" stroke="#F7681C" stroke-width="2" stroke-miterlimit="10" stroke-linecap="round" stroke-linejoin="round"/>
<path d="M10.5852 32.8149C10.3493 32.8149 10.1156 32.7685 9.89763 32.6781C9.67964 32.5878 9.48157 32.4554 9.31475 32.2886C9.14792 32.1217 9.01561 31.9236 8.92537 31.7056C8.83512 31.4875 8.78871 31.2539 8.78879 31.0179V25.7253L8.7876 23.6906C8.7876 23.5646 8.93511 23.4959 9.03126 23.5771L11.2888 25.5479C11.3697 25.6161 11.472 25.6536 11.5778 25.6537H25.4812C25.7171 25.6537 25.9507 25.7001 26.1686 25.7904C26.3866 25.8807 26.5846 26.013 26.7514 26.1798C26.9182 26.3466 27.0506 26.5447 27.1409 26.7626C27.2311 26.9806 27.2776 27.2142 27.2776 27.4501V31.0179C27.2776 31.4944 27.0883 31.9513 26.7514 32.2882C26.4145 32.6251 25.9576 32.8144 25.4812 32.8144H10.5852V32.8149ZM36.0251 19.3906C36.0469 19.4087 36.0733 19.4203 36.1014 19.4239C36.1295 19.4276 36.158 19.4232 36.1837 19.4112C36.2094 19.3992 36.2311 19.3802 36.2464 19.3564C36.2617 19.3325 36.2698 19.3048 36.27 19.2765V11.9552C36.27 11.4762 36.0797 11.0168 35.741 10.6781C35.4023 10.3394 34.943 10.1492 34.464 10.1492H19.5866C19.1076 10.1492 18.6482 10.3394 18.3095 10.6781C17.9708 11.0168 17.7806 11.4762 17.7806 11.9552V15.5421C17.7806 16.0211 17.9708 16.4804 18.3095 16.8191C18.6482 17.1578 19.1076 17.3481 19.5866 17.3481H33.5198C33.6261 17.3481 33.7288 17.3857 33.8106 17.4544L36.0251 19.3906V19.3906Z" stroke="#F7681C" stroke-width="2" stroke-miterlimit="10"/>
</svg>
