<svg width="44" height="44" viewBox="0 0 44 44" fill="none" xmlns="http://www.w3.org/2000/svg">
<mask id="mask0_158_34" style="mask-type:alpha" maskUnits="userSpaceOnUse" x="0" y="0" width="44" height="44">
<rect width="44" height="44" fill="#D9D9D9"/>
</mask>
<g mask="url(#mask0_158_34)">
</g>
<path d="M30.3125 35.3L27.225 32.2125L25.5625 33.875L30.3125 38.625L38.625 30.3125L36.9625 28.65L30.3125 35.3ZM17.25 24.375H26.75V26.75H17.25V24.375ZM17.25 18.4375H26.75V20.8125H17.25V18.4375ZM17.25 12.5H26.75V14.875H17.25V12.5Z" fill="#F7681C"/>
<path d="M22 36.25H10.125V31.5H12.5V29.125H10.125V23.1875H12.5V20.8125H10.125V14.875H12.5V12.5H10.125V7.75H31.5V26.75H33.875V7.75C33.875 6.44375 32.8062 5.375 31.5 5.375H10.125C8.81875 5.375 7.75 6.44375 7.75 7.75V12.5H5.375V14.875H7.75V20.8125H5.375V23.1875H7.75V29.125H5.375V31.5H7.75V36.25C7.75 37.5563 8.81875 38.625 10.125 38.625H22V36.25Z" fill="#F7681C"/>
</svg>
