<svg width="44" height="44" viewBox="0 0 44 44" fill="none" xmlns="http://www.w3.org/2000/svg">
<mask id="mask0_158_28" style="mask-type:alpha" maskUnits="userSpaceOnUse" x="0" y="0" width="44" height="44">
<rect width="44" height="44" fill="#D9D9D9"/>
</mask>
<g mask="url(#mask0_158_28)">
</g>
<g clip-path="url(#clip0_158_28)">
<path d="M22 10.6667V5M14.0666 31.0667H29.9333M6.1333 23.1333V32.2M37.8666 23.1333V32.2M22 10.6667C25.0058 10.6667 27.8884 11.8607 30.0138 13.9861C32.1393 16.1115 33.3333 18.9942 33.3333 22V35.6C33.3333 36.2012 33.0945 36.7777 32.6694 37.2028C32.2443 37.6279 31.6678 37.8667 31.0666 37.8667H12.9333C12.3321 37.8667 11.7556 37.6279 11.3305 37.2028C10.9054 36.7777 10.6666 36.2012 10.6666 35.6V22C10.6666 18.9942 11.8607 16.1115 13.9861 13.9861C16.1115 11.8607 18.9942 10.6667 22 10.6667V10.6667ZM17.4666 26.5333C16.8655 26.5333 16.2889 26.2945 15.8639 25.8694C15.4388 25.4444 15.2 24.8678 15.2 24.2667C15.2 23.6655 15.4388 23.089 15.8639 22.6639C16.2889 22.2388 16.8655 22 17.4666 22C18.0678 22 18.6443 22.2388 19.0694 22.6639C19.4945 23.089 19.7333 23.6655 19.7333 24.2667C19.7333 24.8678 19.4945 25.4444 19.0694 25.8694C18.6443 26.2945 18.0678 26.5333 17.4666 26.5333ZM26.5333 26.5333C25.9321 26.5333 25.3556 26.2945 24.9305 25.8694C24.5054 25.4444 24.2666 24.8678 24.2666 24.2667C24.2666 23.6655 24.5054 23.089 24.9305 22.6639C25.3556 22.2388 25.9321 22 26.5333 22C27.1345 22 27.711 22.2388 28.1361 22.6639C28.5612 23.089 28.8 23.6655 28.8 24.2667C28.8 24.8678 28.5612 25.4444 28.1361 25.8694C27.711 26.2945 27.1345 26.5333 26.5333 26.5333Z" stroke="#F7681C" stroke-width="2"/>
</g>
<defs>
<clipPath id="clip0_158_28">
<rect width="34" height="34" fill="white" transform="translate(5 5)"/>
</clipPath>
</defs>
</svg>
