<svg width="192" height="43" viewBox="0 0 192 43" fill="none" xmlns="http://www.w3.org/2000/svg">
<mask id="mask0_201_28" style="mask-type:alpha" maskUnits="userSpaceOnUse" x="0" y="0" width="192" height="43">
<rect width="192" height="43" fill="#D9D9D9"/>
</mask>
<g mask="url(#mask0_201_28)">
<path d="M66.1367 16.0417L52.3467 2.28167C50.8834 0.82 48.8967 0 46.8267 0C44.7567 0 42.77 0.82 41.3067 2.28167C39.8417 3.74333 39.02 5.725 39.02 7.79C39.02 9.85667 39.8417 11.8383 41.3067 13.3L42.9834 14.9733L53.0484 25.0183C54.5567 26.5217 55.66 28.38 56.2584 30.4217C56.855 32.4633 56.9267 34.6217 56.4667 36.6983L66.0834 27.1017L66.1317 27.0567C67.595 25.5967 68.4184 23.6167 68.4184 21.55C68.42 19.485 67.6 17.5033 66.1367 16.0417Z" fill="#4D4DDB"/>
<path d="M42.4333 28.0717L32.3683 18.0267C30.8617 16.525 29.7567 14.665 29.16 12.6233C28.5617 10.5817 28.49 8.42335 28.9517 6.34668L19.3333 15.9433L19.2867 15.9883C17.8217 17.45 17 19.4317 17 21.4967C17 23.5633 17.8217 25.545 19.2867 27.0067L33.075 40.7667C34.5383 42.2283 36.525 43.0483 38.595 43.0483C40.6667 43.0483 42.6517 42.2283 44.115 40.7667C45.58 39.305 46.4017 37.3233 46.4017 35.2583C46.4017 33.1917 45.58 31.21 44.115 29.7483L42.4333 28.0717Z" fill="#F7681C"/>
<path d="M85.8601 25.78C85.8601 25.14 85.6201 24.62 85.1401 24.22C84.6801 23.82 84.0901 23.46 83.3701 23.14C82.6701 22.8 81.9001 22.46 81.0601 22.12C80.2401 21.76 79.4701 21.33 78.7501 20.83C78.0501 20.31 77.4601 19.67 76.9801 18.91C76.5201 18.15 76.2901 17.18 76.2901 16C76.2901 14.98 76.4601 14.1 76.8001 13.36C77.1401 12.6 77.6201 11.97 78.2401 11.47C78.8801 10.97 79.6301 10.6 80.4901 10.36C81.3501 10.12 82.3101 10 83.3701 10C84.5901 10 85.7401 10.11 86.8201 10.33C87.9001 10.53 88.7901 10.83 89.4901 11.23L88.2001 14.68C87.7601 14.4 87.1001 14.15 86.2201 13.93C85.3401 13.69 84.3901 13.57 83.3701 13.57C82.4101 13.57 81.6701 13.76 81.1501 14.14C80.6501 14.52 80.4001 15.03 80.4001 15.67C80.4001 16.27 80.6301 16.77 81.0901 17.17C81.5701 17.57 82.1601 17.94 82.8601 18.28C83.5801 18.62 84.3501 18.97 85.1701 19.33C86.0101 19.69 86.7801 20.13 87.4801 20.65C88.2001 21.15 88.7901 21.78 89.2501 22.54C89.7301 23.28 89.9701 24.21 89.9701 25.33C89.9701 26.45 89.7801 27.42 89.4001 28.24C89.0401 29.04 88.5201 29.71 87.8401 30.25C87.1801 30.79 86.3701 31.19 85.4101 31.45C84.4701 31.71 83.4301 31.84 82.2901 31.84C80.7901 31.84 79.4701 31.7 78.3301 31.42C77.1901 31.14 76.3501 30.86 75.8101 30.58L77.1301 27.07C77.3501 27.19 77.6301 27.32 77.9701 27.46C78.3301 27.6 78.7301 27.73 79.1701 27.85C79.6101 27.97 80.0701 28.07 80.5501 28.15C81.0501 28.23 81.5601 28.27 82.0801 28.27C83.3001 28.27 84.2301 28.07 84.8701 27.67C85.5301 27.25 85.8601 26.62 85.8601 25.78Z" fill="#212121"/>
<path d="M97.5683 25.21H96.5183V31.42H92.6183V10.42H96.5183V22.81L97.4183 22.39L100.838 16.42H105.128L101.528 22.12L99.9983 23.26L101.648 24.43L105.698 31.42H101.228L97.5683 25.21Z" fill="#212121"/>
<path d="M113.225 24.85L113.765 27.19H113.945L114.335 24.82L116.615 16.42H120.635L116.075 29.95C115.695 31.07 115.325 32.09 114.965 33.01C114.625 33.95 114.245 34.76 113.825 35.44C113.405 36.12 112.935 36.64 112.415 37C111.915 37.38 111.315 37.57 110.615 37.57C109.575 37.57 108.745 37.4 108.125 37.06L108.845 33.94C109.145 34.06 109.445 34.12 109.745 34.12C110.205 34.12 110.645 33.92 111.065 33.52C111.505 33.14 111.835 32.44 112.055 31.42L105.785 16.42H110.465L113.225 24.85Z" fill="#212121"/>
<path d="M127.371 22.45H126.291V31.42H122.181V10.42H126.291V19.72L127.251 19.3L133.041 10.42H137.721L131.601 19.24L129.981 20.38L131.661 21.55L138.651 31.42H133.581L127.371 22.45Z" fill="#212121"/>
<path d="M141.054 16.42H144.954V31.42H141.054V16.42ZM140.484 12.19C140.484 11.61 140.694 11.12 141.114 10.72C141.554 10.3 142.154 10.09 142.914 10.09C143.674 10.09 144.284 10.3 144.744 10.72C145.224 11.12 145.464 11.61 145.464 12.19C145.464 12.77 145.224 13.26 144.744 13.66C144.284 14.04 143.674 14.23 142.914 14.23C142.154 14.23 141.554 14.04 141.114 13.66C140.694 13.26 140.484 12.77 140.484 12.19Z" fill="#212121"/>
<path d="M161.501 26.14C161.501 26.98 161.511 27.82 161.531 28.66C161.551 29.5 161.641 30.43 161.801 31.45H159.011L158.471 29.5H158.351C157.951 30.2 157.371 30.77 156.611 31.21C155.871 31.63 154.991 31.84 153.971 31.84C152.091 31.84 150.631 31.22 149.591 29.98C148.551 28.74 148.031 26.8 148.031 24.16C148.031 21.6 148.611 19.61 149.771 18.19C150.931 16.77 152.631 16.06 154.871 16.06C155.491 16.06 156.001 16.1 156.401 16.18C156.801 16.24 157.201 16.35 157.601 16.51V10.42H161.501V26.14ZM154.871 28.54C155.631 28.54 156.231 28.36 156.671 28C157.111 27.62 157.421 27.08 157.601 26.38V20.02C157.321 19.8 157.011 19.64 156.671 19.54C156.331 19.42 155.891 19.36 155.351 19.36C154.251 19.36 153.421 19.73 152.861 20.47C152.321 21.21 152.051 22.48 152.051 24.28C152.051 25.56 152.271 26.59 152.711 27.37C153.171 28.15 153.891 28.54 154.871 28.54Z" fill="#212121"/>
<path d="M171.133 27.28C171.133 26.88 170.963 26.56 170.623 26.32C170.283 26.08 169.863 25.86 169.363 25.66C168.863 25.46 168.313 25.26 167.713 25.06C167.113 24.84 166.563 24.55 166.063 24.19C165.563 23.81 165.143 23.34 164.803 22.78C164.463 22.2 164.293 21.46 164.293 20.56C164.293 19.08 164.733 17.95 165.613 17.17C166.493 16.39 167.763 16 169.423 16C170.563 16 171.593 16.12 172.513 16.36C173.433 16.6 174.153 16.87 174.673 17.17L173.803 19.99C173.343 19.81 172.763 19.62 172.063 19.42C171.363 19.22 170.653 19.12 169.933 19.12C168.773 19.12 168.193 19.57 168.193 20.47C168.193 20.83 168.363 21.12 168.703 21.34C169.043 21.56 169.463 21.77 169.963 21.97C170.463 22.15 171.013 22.35 171.613 22.57C172.213 22.79 172.763 23.08 173.263 23.44C173.763 23.78 174.183 24.23 174.523 24.79C174.863 25.35 175.033 26.07 175.033 26.95C175.033 28.47 174.543 29.67 173.563 30.55C172.603 31.41 171.153 31.84 169.213 31.84C168.153 31.84 167.153 31.7 166.213 31.42C165.293 31.16 164.543 30.85 163.963 30.49L165.043 27.58C165.503 27.84 166.113 28.1 166.873 28.36C167.633 28.6 168.413 28.72 169.213 28.72C169.793 28.72 170.253 28.61 170.593 28.39C170.953 28.17 171.133 27.8 171.133 27.28Z" fill="#212121"/>
</g>
</svg>
