<svg width="192" height="43" viewBox="0 0 192 43" fill="none" xmlns="http://www.w3.org/2000/svg">
<path d="M48.57 15.8698L34.9407 2.25822C33.4937 0.812928 31.531 0.000976562 29.4846 0.000976562C27.4381 0.000976562 25.4755 0.812928 24.0285 2.25822C22.5815 3.70356 21.7686 5.66383 21.7686 7.70782C21.7686 9.7518 22.5815 11.7121 24.0285 13.1574L25.6868 14.8138L35.6342 24.7493C37.1247 26.2362 38.2155 28.0746 38.806 30.0943C39.3964 32.1141 39.4673 34.2499 39.012 36.3043L48.5175 26.8102L48.5643 26.7662C50.0113 25.3217 50.8247 23.3625 50.8257 21.3192C50.8268 19.2759 50.0155 17.3159 48.57 15.8698Z" fill="#4D4DDB"/>
<path d="M25.1429 27.7698L15.1955 17.8343C13.705 16.3474 12.6141 14.509 12.0237 12.4892C11.4333 10.4695 11.3624 8.33364 11.8176 6.2793L2.31223 15.7734L2.26531 15.8174C0.818305 17.2627 0.00537109 19.223 0.00537109 21.267C0.00537109 23.311 0.818305 25.2713 2.26531 26.7166L15.8932 40.3282C17.3403 41.7736 19.3029 42.5854 21.3494 42.5854C23.3958 42.5854 25.3584 41.7736 26.8055 40.3282C28.2525 38.8829 29.0654 36.9226 29.0654 34.8786C29.0654 32.8346 28.2525 30.8743 26.8055 29.429L25.1429 27.7698Z" fill="#F7681C"/>
<path d="M67.8601 25.78C67.8601 25.14 67.6201 24.62 67.1401 24.22C66.6801 23.82 66.0901 23.46 65.3701 23.14C64.6701 22.8 63.9001 22.46 63.0601 22.12C62.2401 21.76 61.4701 21.33 60.7501 20.83C60.0501 20.31 59.4601 19.67 58.9801 18.91C58.5201 18.15 58.2901 17.18 58.2901 16C58.2901 14.98 58.4601 14.1 58.8001 13.36C59.1401 12.6 59.6201 11.97 60.2401 11.47C60.8801 10.97 61.6301 10.6 62.4901 10.36C63.3501 10.12 64.3101 10 65.3701 10C66.5901 10 67.7401 10.11 68.8201 10.33C69.9001 10.53 70.7901 10.83 71.4901 11.23L70.2001 14.68C69.7601 14.4 69.1001 14.15 68.2201 13.93C67.3401 13.69 66.3901 13.57 65.3701 13.57C64.4101 13.57 63.6701 13.76 63.1501 14.14C62.6501 14.52 62.4001 15.03 62.4001 15.67C62.4001 16.27 62.6301 16.77 63.0901 17.17C63.5701 17.57 64.1601 17.94 64.8601 18.28C65.5801 18.62 66.3501 18.97 67.1701 19.33C68.0101 19.69 68.7801 20.13 69.4801 20.65C70.2001 21.15 70.7901 21.78 71.2501 22.54C71.7301 23.28 71.9701 24.21 71.9701 25.33C71.9701 26.45 71.7801 27.42 71.4001 28.24C71.0401 29.04 70.5201 29.71 69.8401 30.25C69.1801 30.79 68.3701 31.19 67.4101 31.45C66.4701 31.71 65.4301 31.84 64.2901 31.84C62.7901 31.84 61.4701 31.7 60.3301 31.42C59.1901 31.14 58.3501 30.86 57.8101 30.58L59.1301 27.07C59.3501 27.19 59.6301 27.32 59.9701 27.46C60.3301 27.6 60.7301 27.73 61.1701 27.85C61.6101 27.97 62.0701 28.07 62.5501 28.15C63.0501 28.23 63.5601 28.27 64.0801 28.27C65.3001 28.27 66.2301 28.07 66.8701 27.67C67.5301 27.25 67.8601 26.62 67.8601 25.78Z" fill="#212121"/>
<path d="M79.5683 25.21H78.5183V31.42H74.6183V10.42H78.5183V22.81L79.4183 22.39L82.8383 16.42H87.1283L83.5283 22.12L81.9983 23.26L83.6483 24.43L87.6983 31.42H83.2283L79.5683 25.21Z" fill="#212121"/>
<path d="M95.2247 24.85L95.7647 27.19H95.9447L96.3347 24.82L98.6147 16.42H102.635L98.0747 29.95C97.6947 31.07 97.3247 32.09 96.9647 33.01C96.6247 33.95 96.2447 34.76 95.8247 35.44C95.4047 36.12 94.9347 36.64 94.4147 37C93.9147 37.38 93.3147 37.57 92.6147 37.57C91.5747 37.57 90.7447 37.4 90.1247 37.06L90.8447 33.94C91.1447 34.06 91.4447 34.12 91.7447 34.12C92.2047 34.12 92.6447 33.92 93.0647 33.52C93.5047 33.14 93.8347 32.44 94.0547 31.42L87.7847 16.42H92.4647L95.2247 24.85Z" fill="#212121"/>
<path d="M119.091 14.08H112.971V31.42H108.861V14.08H102.711V10.42H119.091V14.08Z" fill="#212121"/>
<path d="M126.258 20.08C125.638 19.86 125.078 19.75 124.578 19.75C123.878 19.75 123.288 19.94 122.808 20.32C122.348 20.68 122.038 21.15 121.878 21.73V31.42H117.978V16.42H121.008L121.458 18.4H121.578C121.918 17.66 122.378 17.09 122.958 16.69C123.538 16.29 124.218 16.09 124.998 16.09C125.518 16.09 126.108 16.2 126.768 16.42L126.258 20.08Z" fill="#212121"/>
<path d="M128.405 17.29C129.205 16.93 130.155 16.65 131.255 16.45C132.355 16.23 133.505 16.12 134.705 16.12C135.745 16.12 136.615 16.25 137.315 16.51C138.015 16.75 138.565 17.1 138.965 17.56C139.385 18.02 139.675 18.57 139.835 19.21C140.015 19.85 140.105 20.57 140.105 21.37C140.105 22.25 140.075 23.14 140.015 24.04C139.955 24.92 139.915 25.79 139.895 26.65C139.895 27.51 139.925 28.35 139.985 29.17C140.045 29.97 140.195 30.73 140.435 31.45H137.255L136.625 29.38H136.475C136.075 30 135.515 30.54 134.795 31C134.095 31.44 133.185 31.66 132.065 31.66C131.365 31.66 130.735 31.56 130.175 31.36C129.615 31.14 129.135 30.84 128.735 30.46C128.335 30.06 128.025 29.6 127.805 29.08C127.585 28.54 127.475 27.94 127.475 27.28C127.475 26.36 127.675 25.59 128.075 24.97C128.495 24.33 129.085 23.82 129.845 23.44C130.625 23.04 131.545 22.77 132.605 22.63C133.685 22.47 134.885 22.42 136.205 22.48C136.345 21.36 136.265 20.56 135.965 20.08C135.665 19.58 134.995 19.33 133.955 19.33C133.175 19.33 132.345 19.41 131.465 19.57C130.605 19.73 129.895 19.94 129.335 20.2L128.405 17.29ZM133.355 28.45C134.135 28.45 134.755 28.28 135.215 27.94C135.675 27.58 136.015 27.2 136.235 26.8V24.85C135.615 24.79 135.015 24.78 134.435 24.82C133.875 24.86 133.375 24.95 132.935 25.09C132.495 25.23 132.145 25.43 131.885 25.69C131.625 25.95 131.495 26.28 131.495 26.68C131.495 27.24 131.655 27.68 131.975 28C132.315 28.3 132.775 28.45 133.355 28.45Z" fill="#212121"/>
<path d="M143.738 16.42H147.638V31.42H143.738V16.42ZM143.168 12.19C143.168 11.61 143.378 11.12 143.798 10.72C144.238 10.3 144.838 10.09 145.598 10.09C146.358 10.09 146.968 10.3 147.428 10.72C147.908 11.12 148.148 11.61 148.148 12.19C148.148 12.77 147.908 13.26 147.428 13.66C146.968 14.04 146.358 14.23 145.598 14.23C144.838 14.23 144.238 14.04 143.798 13.66C143.378 13.26 143.168 12.77 143.168 12.19Z" fill="#212121"/>
<path d="M160.615 31.42V22.9C160.615 21.68 160.435 20.8 160.075 20.26C159.735 19.72 159.145 19.45 158.305 19.45C157.565 19.45 156.935 19.67 156.415 20.11C155.915 20.53 155.555 21.06 155.335 21.7V31.42H151.435V16.42H154.525L154.975 18.4H155.095C155.555 17.76 156.165 17.2 156.925 16.72C157.685 16.24 158.665 16 159.865 16C160.605 16 161.265 16.1 161.845 16.3C162.425 16.5 162.915 16.83 163.315 17.29C163.715 17.75 164.015 18.38 164.215 19.18C164.415 19.96 164.515 20.93 164.515 22.09V31.42H160.615Z" fill="#212121"/>
<path d="M179.782 30.13C179.182 30.61 178.362 31.02 177.322 31.36C176.302 31.68 175.212 31.84 174.052 31.84C171.632 31.84 169.862 31.14 168.742 29.74C167.622 28.32 167.062 26.38 167.062 23.92C167.062 21.28 167.692 19.3 168.952 17.98C170.212 16.66 171.982 16 174.262 16C175.022 16 175.762 16.1 176.482 16.3C177.202 16.5 177.842 16.83 178.402 17.29C178.962 17.75 179.412 18.37 179.752 19.15C180.092 19.93 180.262 20.9 180.262 22.06C180.262 22.48 180.232 22.93 180.172 23.41C180.132 23.89 180.062 24.39 179.962 24.91H170.962C171.022 26.17 171.342 27.12 171.922 27.76C172.522 28.4 173.482 28.72 174.802 28.72C175.622 28.72 176.352 28.6 176.992 28.36C177.652 28.1 178.152 27.84 178.492 27.58L179.782 30.13ZM174.202 19.12C173.182 19.12 172.422 19.43 171.922 20.05C171.442 20.65 171.152 21.46 171.052 22.48H176.632C176.712 21.4 176.542 20.57 176.122 19.99C175.722 19.41 175.082 19.12 174.202 19.12Z" fill="#212121"/>
<path d="M191.297 20.08C190.677 19.86 190.117 19.75 189.617 19.75C188.917 19.75 188.327 19.94 187.847 20.32C187.387 20.68 187.077 21.15 186.917 21.73V31.42H183.017V16.42H186.047L186.497 18.4H186.617C186.957 17.66 187.417 17.09 187.997 16.69C188.577 16.29 189.257 16.09 190.037 16.09C190.557 16.09 191.147 16.2 191.807 16.42L191.297 20.08Z" fill="#212121"/>
</svg>
