<svg width="21" height="21" viewBox="0 0 21 21" fill="none" xmlns="http://www.w3.org/2000/svg">
<path d="M11.2 9.6249V4.3749H12.95V6.6499L17.325 2.2749L18.55 3.4999L14.175 7.8749H16.45V9.6249H11.2ZM17.4563 18.3749C15.575 18.3749 13.7413 17.9555 11.9551 17.1167C10.1684 16.2784 8.58608 15.1701 7.20825 13.7917C5.82983 12.4138 4.7215 10.8315 3.88325 9.04478C3.04442 7.25861 2.625 5.4249 2.625 3.54365C2.625 3.28115 2.7125 3.0624 2.8875 2.8874C3.0625 2.7124 3.28125 2.6249 3.54375 2.6249H7.0875C7.29167 2.6249 7.47396 2.69053 7.63438 2.82178C7.79479 2.95303 7.88958 3.12074 7.91875 3.3249L8.4875 6.3874C8.51667 6.59157 8.51317 6.77736 8.477 6.94478C8.44025 7.11278 8.35625 7.2624 8.225 7.39365L6.10312 9.5374C6.71562 10.5874 7.48504 11.5718 8.41138 12.4905C9.33712 13.4093 10.3542 14.2041 11.4625 14.8749L13.5188 12.8187C13.65 12.6874 13.8215 12.5888 14.0332 12.5229C14.2444 12.4576 14.4521 12.4395 14.6562 12.4687L17.675 13.0812C17.8792 13.1249 18.0469 13.2232 18.1781 13.376C18.3094 13.5294 18.375 13.7082 18.375 13.9124V17.4562C18.375 17.7187 18.2875 17.9374 18.1125 18.1124C17.9375 18.2874 17.7188 18.3749 17.4563 18.3749ZM5.27188 7.8749L6.71563 6.43115L6.34375 4.3749H4.39688C4.46979 4.97282 4.57187 5.56344 4.70312 6.14678C4.83437 6.73011 5.02396 7.30615 5.27188 7.8749ZM13.1031 15.7062C13.6719 15.9541 14.2517 16.1509 14.8426 16.2968C15.433 16.4426 16.0271 16.5374 16.625 16.5812V14.6562L14.5687 14.2405L13.1031 15.7062Z" fill="#404040"/>
</svg>
