<svg width="192" height="44" viewBox="0 0 192 44" fill="none" xmlns="http://www.w3.org/2000/svg">
<mask id="mask0_201_30" style="mask-type:alpha" maskUnits="userSpaceOnUse" x="0" y="0" width="192" height="44">
<rect width="192" height="44" fill="#D9D9D9"/>
</mask>
<g mask="url(#mask0_201_30)">
<path d="M55.223 16.3963L41.1281 2.33211C39.6324 0.838127 37.6018 0 35.4861 0C33.3703 0 31.3397 0.838127 29.8441 2.33211C28.3467 3.82609 27.5068 5.85156 27.5068 7.96221C27.5068 10.0746 28.3467 12.1 29.8441 13.594L31.5578 15.3043L41.8453 25.5714C43.387 27.108 44.5147 29.0074 45.1263 31.0942C45.7361 33.181 45.8094 35.387 45.3392 37.5096L55.1684 27.7008L55.2178 27.6548C56.7135 26.1625 57.5551 24.1388 57.5551 22.0264C57.5568 19.9157 56.7186 17.8903 55.223 16.3963Z" fill="#4D4DDB"/>
<path d="M30.9956 28.6923L20.7081 18.4253C19.1681 16.8904 18.0387 14.9893 17.4288 12.9025C16.8173 10.8157 16.744 8.60964 17.2159 6.48706L7.38492 16.2959L7.33722 16.3419C5.83983 17.8359 5 19.8613 5 21.972C5 24.0843 5.83983 26.1098 7.33722 27.6038L21.4304 41.668C22.926 43.1619 24.9566 44.0001 27.0724 44.0001C29.1899 44.0001 31.2187 43.1619 32.7144 41.668C34.2118 40.174 35.0516 38.1485 35.0516 36.0379C35.0516 33.9255 34.2118 31.9 32.7144 30.4061L30.9956 28.6923Z" fill="#F7681C"/>
<path d="M75.8601 25.78C75.8601 25.14 75.6201 24.62 75.1401 24.22C74.6801 23.82 74.0901 23.46 73.3701 23.14C72.6701 22.8 71.9001 22.46 71.0601 22.12C70.2401 21.76 69.4701 21.33 68.7501 20.83C68.0501 20.31 67.4601 19.67 66.9801 18.91C66.5201 18.15 66.2901 17.18 66.2901 16C66.2901 14.98 66.4601 14.1 66.8001 13.36C67.1401 12.6 67.6201 11.97 68.2401 11.47C68.8801 10.97 69.6301 10.6 70.4901 10.36C71.3501 10.12 72.3101 10 73.3701 10C74.5901 10 75.7401 10.11 76.8201 10.33C77.9001 10.53 78.7901 10.83 79.4901 11.23L78.2001 14.68C77.7601 14.4 77.1001 14.15 76.2201 13.93C75.3401 13.69 74.3901 13.57 73.3701 13.57C72.4101 13.57 71.6701 13.76 71.1501 14.14C70.6501 14.52 70.4001 15.03 70.4001 15.67C70.4001 16.27 70.6301 16.77 71.0901 17.17C71.5701 17.57 72.1601 17.94 72.8601 18.28C73.5801 18.62 74.3501 18.97 75.1701 19.33C76.0101 19.69 76.7801 20.13 77.4801 20.65C78.2001 21.15 78.7901 21.78 79.2501 22.54C79.7301 23.28 79.9701 24.21 79.9701 25.33C79.9701 26.45 79.7801 27.42 79.4001 28.24C79.0401 29.04 78.5201 29.71 77.8401 30.25C77.1801 30.79 76.3701 31.19 75.4101 31.45C74.4701 31.71 73.4301 31.84 72.2901 31.84C70.7901 31.84 69.4701 31.7 68.3301 31.42C67.1901 31.14 66.3501 30.86 65.8101 30.58L67.1301 27.07C67.3501 27.19 67.6301 27.32 67.9701 27.46C68.3301 27.6 68.7301 27.73 69.1701 27.85C69.6101 27.97 70.0701 28.07 70.5501 28.15C71.0501 28.23 71.5601 28.27 72.0801 28.27C73.3001 28.27 74.2301 28.07 74.8701 27.67C75.5301 27.25 75.8601 26.62 75.8601 25.78Z" fill="#212121"/>
<path d="M87.5683 25.21H86.5183V31.42H82.6183V10.42H86.5183V22.81L87.4183 22.39L90.8383 16.42H95.1283L91.5283 22.12L89.9983 23.26L91.6483 24.43L95.6983 31.42H91.2283L87.5683 25.21Z" fill="#212121"/>
<path d="M103.225 24.85L103.765 27.19H103.945L104.335 24.82L106.615 16.42H110.635L106.075 29.95C105.695 31.07 105.325 32.09 104.965 33.01C104.625 33.95 104.245 34.76 103.825 35.44C103.405 36.12 102.935 36.64 102.415 37C101.915 37.38 101.315 37.57 100.615 37.57C99.5747 37.57 98.7447 37.4 98.1247 37.06L98.8447 33.94C99.1447 34.06 99.4447 34.12 99.7447 34.12C100.205 34.12 100.645 33.92 101.065 33.52C101.505 33.14 101.835 32.44 102.055 31.42L95.7847 16.42H100.465L103.225 24.85Z" fill="#212121"/>
<path d="M121.241 25.78C121.241 25.14 121.001 24.62 120.521 24.22C120.061 23.82 119.471 23.46 118.751 23.14C118.051 22.8 117.281 22.46 116.441 22.12C115.621 21.76 114.851 21.33 114.131 20.83C113.431 20.31 112.841 19.67 112.361 18.91C111.901 18.15 111.671 17.18 111.671 16C111.671 14.98 111.841 14.1 112.181 13.36C112.521 12.6 113.001 11.97 113.621 11.47C114.261 10.97 115.011 10.6 115.871 10.36C116.731 10.12 117.691 10 118.751 10C119.971 10 121.121 10.11 122.201 10.33C123.281 10.53 124.171 10.83 124.871 11.23L123.581 14.68C123.141 14.4 122.481 14.15 121.601 13.93C120.721 13.69 119.771 13.57 118.751 13.57C117.791 13.57 117.051 13.76 116.531 14.14C116.031 14.52 115.781 15.03 115.781 15.67C115.781 16.27 116.011 16.77 116.471 17.17C116.951 17.57 117.541 17.94 118.241 18.28C118.961 18.62 119.731 18.97 120.551 19.33C121.391 19.69 122.161 20.13 122.861 20.65C123.581 21.15 124.171 21.78 124.631 22.54C125.111 23.28 125.351 24.21 125.351 25.33C125.351 26.45 125.161 27.42 124.781 28.24C124.421 29.04 123.901 29.71 123.221 30.25C122.561 30.79 121.751 31.19 120.791 31.45C119.851 31.71 118.811 31.84 117.671 31.84C116.171 31.84 114.851 31.7 113.711 31.42C112.571 31.14 111.731 30.86 111.191 30.58L112.511 27.07C112.731 27.19 113.011 27.32 113.351 27.46C113.711 27.6 114.111 27.73 114.551 27.85C114.991 27.97 115.451 28.07 115.931 28.15C116.431 28.23 116.941 28.27 117.461 28.27C118.681 28.27 119.611 28.07 120.251 27.67C120.911 27.25 121.241 26.62 121.241 25.78Z" fill="#212121"/>
<path d="M127.279 23.92C127.279 21.38 127.899 19.43 129.139 18.07C130.379 16.69 132.119 16 134.359 16C135.559 16 136.599 16.19 137.479 16.57C138.359 16.95 139.089 17.49 139.669 18.19C140.249 18.87 140.679 19.7 140.959 20.68C141.259 21.66 141.409 22.74 141.409 23.92C141.409 26.46 140.789 28.42 139.549 29.8C138.329 31.16 136.599 31.84 134.359 31.84C133.159 31.84 132.119 31.65 131.239 31.27C130.359 30.89 129.619 30.36 129.019 29.68C128.439 28.98 127.999 28.14 127.699 27.16C127.419 26.18 127.279 25.1 127.279 23.92ZM131.299 23.92C131.299 24.58 131.359 25.19 131.479 25.75C131.599 26.31 131.779 26.8 132.019 27.22C132.259 27.64 132.569 27.97 132.949 28.21C133.349 28.43 133.819 28.54 134.359 28.54C135.379 28.54 136.139 28.17 136.639 27.43C137.139 26.69 137.389 25.52 137.389 23.92C137.389 22.54 137.159 21.43 136.699 20.59C136.239 19.73 135.459 19.3 134.359 19.3C133.399 19.3 132.649 19.66 132.109 20.38C131.569 21.1 131.299 22.28 131.299 23.92Z" fill="#212121"/>
<path d="M154.732 30.49C154.132 30.93 153.402 31.26 152.542 31.48C151.702 31.72 150.832 31.84 149.932 31.84C148.732 31.84 147.712 31.65 146.872 31.27C146.052 30.89 145.382 30.36 144.862 29.68C144.342 28.98 143.962 28.14 143.722 27.16C143.502 26.18 143.392 25.1 143.392 23.92C143.392 21.38 143.962 19.43 145.102 18.07C146.242 16.69 147.902 16 150.082 16C151.182 16 152.062 16.09 152.722 16.27C153.402 16.45 154.012 16.68 154.552 16.96L153.622 20.14C153.162 19.92 152.702 19.75 152.242 19.63C151.802 19.51 151.292 19.45 150.712 19.45C149.632 19.45 148.812 19.81 148.252 20.53C147.692 21.23 147.412 22.36 147.412 23.92C147.412 24.56 147.482 25.15 147.622 25.69C147.762 26.23 147.972 26.7 148.252 27.1C148.532 27.5 148.892 27.82 149.332 28.06C149.792 28.28 150.322 28.39 150.922 28.39C151.582 28.39 152.142 28.31 152.602 28.15C153.062 27.97 153.472 27.76 153.832 27.52L154.732 30.49Z" fill="#212121"/>
<path d="M157.451 16.42H161.351V31.42H157.451V16.42ZM156.881 12.19C156.881 11.61 157.091 11.12 157.511 10.72C157.951 10.3 158.551 10.09 159.311 10.09C160.071 10.09 160.681 10.3 161.141 10.72C161.621 11.12 161.861 11.61 161.861 12.19C161.861 12.77 161.621 13.26 161.141 13.66C160.681 14.04 160.071 14.23 159.311 14.23C158.551 14.23 157.951 14.04 157.511 13.66C157.091 13.26 156.881 12.77 156.881 12.19Z" fill="#212121"/>
<path d="M165.058 17.29C165.858 16.93 166.808 16.65 167.908 16.45C169.008 16.23 170.158 16.12 171.358 16.12C172.398 16.12 173.268 16.25 173.968 16.51C174.668 16.75 175.218 17.1 175.618 17.56C176.038 18.02 176.328 18.57 176.488 19.21C176.668 19.85 176.758 20.57 176.758 21.37C176.758 22.25 176.728 23.14 176.668 24.04C176.608 24.92 176.568 25.79 176.548 26.65C176.548 27.51 176.578 28.35 176.638 29.17C176.698 29.97 176.848 30.73 177.088 31.45H173.908L173.278 29.38H173.128C172.728 30 172.168 30.54 171.448 31C170.748 31.44 169.838 31.66 168.718 31.66C168.018 31.66 167.388 31.56 166.828 31.36C166.268 31.14 165.788 30.84 165.388 30.46C164.988 30.06 164.678 29.6 164.458 29.08C164.238 28.54 164.128 27.94 164.128 27.28C164.128 26.36 164.328 25.59 164.728 24.97C165.148 24.33 165.738 23.82 166.498 23.44C167.278 23.04 168.198 22.77 169.258 22.63C170.338 22.47 171.538 22.42 172.858 22.48C172.998 21.36 172.918 20.56 172.618 20.08C172.318 19.58 171.648 19.33 170.608 19.33C169.828 19.33 168.998 19.41 168.118 19.57C167.258 19.73 166.548 19.94 165.988 20.2L165.058 17.29ZM170.008 28.45C170.788 28.45 171.408 28.28 171.868 27.94C172.328 27.58 172.668 27.2 172.888 26.8V24.85C172.268 24.79 171.668 24.78 171.088 24.82C170.528 24.86 170.028 24.95 169.588 25.09C169.148 25.23 168.798 25.43 168.538 25.69C168.278 25.95 168.148 26.28 168.148 26.68C168.148 27.24 168.308 27.68 168.628 28C168.968 28.3 169.428 28.45 170.008 28.45Z" fill="#212121"/>
<path d="M184.05 26.38C184.05 27.08 184.14 27.59 184.32 27.91C184.5 28.23 184.79 28.39 185.19 28.39C185.43 28.39 185.66 28.37 185.88 28.33C186.12 28.29 186.41 28.2 186.75 28.06L187.17 31.12C186.85 31.28 186.36 31.44 185.7 31.6C185.04 31.76 184.36 31.84 183.66 31.84C182.52 31.84 181.65 31.58 181.05 31.06C180.45 30.52 180.15 29.64 180.15 28.42V10.42H184.05V26.38Z" fill="#212121"/>
</g>
</svg>
