<svg width="77" height="71" viewBox="0 0 77 71" fill="none" xmlns="http://www.w3.org/2000/svg">
<g clip-path="url(#clip0_9_10469)">
<path d="M68.6522 14.8174L68.6529 14.8169C71.0472 12.9952 73.5818 11.4439 76.1721 10.0211L70.4867 1.52032C70.2643 1.19145 70.0418 0.866193 69.817 0.537511C69.6954 0.359714 69.5731 0.180916 69.4498 0C69.2869 0.0687152 69.1584 0.128841 69.0298 0.188967C66.0133 1.67493 63.1081 3.34128 60.3314 5.23954C55.798 8.3489 51.7616 11.9908 48.5393 16.5002L68.6522 14.8174ZM68.6522 14.8174C65.1235 17.5054 61.9543 20.6393 59.6077 24.5894L68.6522 14.8174ZM43.192 69.5172H43.2431H43.3054H43.3678H43.4301H43.4925H43.5549H43.6172H43.6796H43.742H43.8043H43.8667H43.929H43.9914H44.0538H44.1161H44.1785H44.2408H44.3032H44.3656H44.4279H44.4903H44.5526H44.615H44.6773H44.7397H44.8021H44.8644H44.9268H44.9891H45.0515H45.1139H45.1762H45.2386H45.3009H45.3633H45.4256H45.488H45.5504H45.6127H45.6751H45.7374H45.7998H45.8621H45.9245H45.9868H46.0492H46.1115H46.1739H46.2363H46.2986H46.361H46.4233H46.4857H46.548H46.6104H46.6727H46.7351H46.7974H46.8598H46.9221H46.9845H47.0469H47.1092H47.1716H47.2339H47.2963H47.3586H47.421H47.4833H47.5457H47.608H47.6704H47.7327H47.7951H47.8574H47.9198H47.9821H48.0445H48.1068H48.1692H48.2315H48.2939H48.3562H48.4186H48.4809H48.5433H48.6056H48.668H48.7303H48.7927H48.855H48.9174H48.9797H49.0421H49.1044H49.1668H49.2291H49.2915H49.3538H49.4162H49.4785H49.5409H49.6032H49.6656H49.7279H49.7903H49.8526H49.9149H49.9773H50.0396H50.102H50.1643H50.2267H50.289H50.3514H50.4137H50.4761H50.5384H50.6008H50.6631H50.7255H50.7878H50.8501H50.9125H50.9748H51.0372H51.0995H51.1619H51.2242H51.2866H51.3489H51.4113H51.4736H51.5359H51.5983H51.6606H51.723H51.7853H51.8477H51.91H51.9724H52.0347H52.097H52.1594H52.2217H52.2841H52.3464H52.4088H52.4711H52.5335H52.5958H52.6581H52.7205H52.7828H52.8452H52.9075H52.9699H53.0322H53.0945H53.1569H53.2192H53.2816H53.3439H53.4063H53.4686H53.5309H53.5933H53.6556H53.718H53.7803H53.8427H53.905H53.9673H54.0297H54.092H54.1544H54.2167H54.2791H54.3414H54.4037H54.4661H54.5284H54.5908H54.6531H54.7154H54.7778H54.8401H54.9025H54.9648H55.0272H55.0895H55.1518H55.2142H55.2765H55.3389H55.4012H55.4635H55.5259H55.5882H55.6506H55.7129H55.7752H55.8376H55.8999H55.9623H56.0246H56.087H56.1493H56.2116H56.274H56.3363H56.3987H56.461H56.5233H56.5857H56.648H56.7104H56.7727H56.835H56.8974H56.9597H57.0221H57.0844H57.1467H57.2091H57.2714H57.3338H57.3961H57.4585H57.5208H57.5831H57.6455H57.7078H57.7702H57.8325H57.8948H57.9572H58.0195H58.0819H58.1442H58.2065H58.2689H58.3312H58.3936H58.4559H58.5182H58.5806H58.6429H58.7053H58.7676H58.8299H58.8923H58.9546H59.017H59.0793H59.1417H59.204H59.2663H59.3287H59.391H59.4534H59.5157H59.578H59.6404H59.7027H59.7651H59.8274H59.8897H59.9521H60.0144H60.0768H60.1391H60.2014H60.2638H60.3261H60.3885H60.4508H60.5132H60.5755H60.6378H60.7002H60.7625H60.8249H60.8872H60.9495H61.0119H61.0742H61.1366H61.1989H61.2612H61.3236H61.3859H61.4483H61.5106H61.573H61.6353H61.6976H61.76H61.8223H61.8847H61.947H62.0094H62.0717H62.134H62.1964H62.2587H62.3211H62.3834H62.4457H62.5081H62.5704H62.6328H62.6951H62.7575H62.8198H62.8821H62.9445H63.0068H63.0692H63.1315H63.1939H63.2562H63.3186H63.3809H63.4432H63.5056H63.5679H63.6303H63.6926H63.755H63.8173H63.8796H63.942H64.0043H64.0667H64.129H64.1914H64.2537H64.3161H64.3784H64.4407H64.5031H64.5654H64.6278H64.6901H64.7525H64.8148H64.8772H64.9395H65.0018H65.0642H65.1265H65.1889H65.2512H65.3136H65.3759H65.4383H65.5006H65.563H65.6253H65.6877H65.75H65.8123H65.8747H65.937H65.9994H66.0617H66.1241H66.1864H66.2488H66.3111H66.3735H66.4358H66.4982H66.5605H66.6229H66.6852H66.7476H66.8099H66.8722H66.9346H66.9969H67.0593H67.1216H67.184H67.2463H67.3087H67.371H67.4334H67.4957H67.5581H67.6204H67.6828H67.7451H67.8075H67.8698H67.9322H67.9945H68.0569H68.1192H68.1816H68.2439H68.3063H68.3686H68.431H68.4933H68.5557H68.618H68.6804H68.7428H68.8051H68.8675H68.9298H68.9922H69.0545H69.1169H69.1792H69.2416H69.3039H69.3663H69.4286H69.491H69.5533H69.6157H69.678H69.7404H69.8028H69.8651H69.9275H69.9898H70.0522H70.1145H70.1769H70.2392H70.3016H70.3639H70.4263H70.4887H70.551H70.6134H70.6757H70.7381H70.8004H70.8628H70.9252H70.9875H71.0499H71.1122H71.1746H71.2369H71.2993H71.3617H71.424H71.4864H71.5487H71.6111H71.6734H71.7358H71.7982H71.8605H71.9229H71.9852H72.0476H72.11H72.1723H72.2347H72.297H72.3594H72.4218H72.4841H72.5465H72.6088H72.6712H72.7336H72.7959H72.8583H72.9207H72.983H73.0454H73.1077H73.126V69.5165V69.4542V69.392V69.3297V69.2674V69.2052V69.1429V69.0807V69.0184V68.9562V68.8939V68.8317V68.7694V68.7072V68.6449V68.5827V68.5204V68.4582V68.3959V68.3337V68.2714V68.2092V68.1469V68.0847V68.0224V67.9602V67.8979V67.8357V67.7734V67.7112V67.6489V67.5867V67.5244V67.4622V67.3999V67.3377V67.2754V67.2132V67.1509V67.0887V67.0265V66.9642V66.902V66.8397V66.7775V66.7152V66.653V66.5907V66.5285V66.4662V66.404V66.3418V66.2795V66.2173V66.155V66.0928V66.0305V65.9683V65.906V65.8438V65.7815V65.7193V65.6571V65.5948V65.5326V65.4703V65.4081V65.3458V65.2836V65.2214V65.1591V65.0969V65.0346V64.9724V64.9101V64.8479V64.7857V64.7234V64.6612V64.5989V64.5367V64.4745V64.4122V64.35V64.2877V64.2255V64.1633V64.101V64.0388V63.9765V63.9143V63.8521V63.7898V63.7276V63.6653V63.6031V63.5409V63.4786V63.4164V63.3541V63.2919V63.2297V63.1674V63.1052V63.0429V62.9807V62.9185V62.8562V62.794V62.7318V62.6695V62.6073V62.545V62.4828V62.4206V62.3583V62.2961V62.2339V62.1716V62.1094V62.0471V61.9849V61.9227V61.8604V61.7982V61.736V61.6737V61.6115V61.5493V61.487V61.4248V61.3625V61.3003V61.2381V61.1758V61.1136V61.0514V60.9891V60.9269V60.8647V60.8024V60.7402V60.678V60.6157V60.5535V60.4912V60.429V60.3668V60.3045V60.2423V60.1801V60.1178V60.0556V59.9934V59.9311V59.8689V59.8067V59.7444V59.6822V59.62V59.5577V59.4955V59.4333V59.371V59.3088V59.2466V59.1843V59.1221V59.0599V58.9976V58.9354V58.8732V58.8109V58.7487V58.6865V58.6242V58.562V58.4998V58.4375V58.3753V58.3131V58.2508V58.1886V58.1264V58.0641V58.0019V57.9397V57.8774V57.8152V57.753V57.6908V57.6285V57.5663V57.5041V57.4418V57.3796V57.3174V57.2551V57.1929V57.1307V57.0684V57.0062V56.944V56.8817V56.8195V56.7573V56.695V56.6328V56.5706V56.5083V56.4461V56.3839V56.3216V56.2594V56.1972V56.135V56.0727V56.0105V55.9483V55.886V55.8238V55.7616V55.6993V55.6371V55.5749V55.5126V55.4504V55.3882V55.3259V55.2637V55.2015V55.1393V55.077V55.0148V54.9526V54.8903V54.8281V54.7659V54.7036V54.6414V54.5792V54.5169V54.4547V54.3925V54.3302V54.268V54.2058V54.1436V54.0813V54.0191V53.9569V53.8946V53.8324V53.7702V53.7079V53.6457V53.5835V53.5212V53.459V53.3968V53.3345V53.2723V53.2101V53.1479V53.0856V53.0234V52.9612V52.8989V52.8367V52.7745V52.7122V52.65V52.5878V52.5255V52.4633V52.4011V52.3388V52.2766V52.2144V52.1521V52.0899V52.0277V51.9655V51.9032V51.841V51.7788V51.7165V51.6543V51.5921V51.5298V51.4676V51.4054V51.3431V51.2809V51.2187V51.1564V51.0942V51.032V50.9697V50.9075V50.8453V50.783V50.7208V50.6586V50.5963V50.5341V50.4719V50.4096V50.3474V50.2852V50.2229V50.1607V50.0985V50.0362V49.974V49.9118V49.8495V49.7873V49.7251V49.6628V49.6006V49.5384V49.4761V49.4139V49.3517V49.2894V49.2272V49.165V49.1027V49.0405V48.9783V48.916V48.8538V48.7916V48.7293V48.6671V48.6049V48.5426V48.4804V48.4182V48.3559V48.2937V48.2315V48.1692V48.107V48.0447V47.9825V47.9203V47.858V47.7958V47.7336V47.6713V47.6091V47.5469V47.4846V47.4224V47.3602V47.2979V47.2357V47.1734V47.1112V47.049V46.9867V46.9245V46.8623V46.8V46.7378V46.6755V46.6133V46.5511V46.4888V46.4266V46.3644V46.3021V46.2399V46.1776V46.1154V46.0532V45.9909V45.9287V45.8665V45.8042V45.742V45.6797V45.6175V45.5553V45.493V45.4308V45.3685V45.3063V45.2441V45.1818V45.1196V45.0573V44.9951V44.9329V44.8706V44.8084V44.7461V44.6839V44.6217V44.5594V44.4972V44.4349V44.3727V44.3105V44.2482V44.186V44.1237V44.0615V43.9992V43.937V43.8748V43.8125V43.7503V43.688V43.6258V43.5635V43.5013V43.4391V43.3768V43.3146V43.2523V43.1901V43.1278V43.0656V43.0034V42.9411V42.8789V42.8166V42.7544V42.6921V42.6299V42.5676V42.5054V42.4431V42.3809V42.3187V42.2564V42.1942V42.1319V42.0697V42.0074V41.9452V41.8829V41.8207V41.7584V41.6962V41.6339V41.5717V41.5094V41.4472V41.3849V41.3227V41.2605V41.1982V41.136V41.0737V41.0115V40.9492V40.887V40.8247V40.7625V40.7002V40.638V40.5757V40.5135V40.4512V40.389V40.3267V40.2645V40.2022V40.1399V40.0777V40.0154V39.9532V39.8909V39.8287V39.7664V39.7042V39.6419V39.5797V39.5174V39.4823L43.192 69.5172ZM43.192 69.5172V69.4668V69.412V69.3572V69.3025V69.2477V69.1929V69.1382V69.0834V69.0287V68.9739V68.9191V68.8644V68.8096V68.7548V68.7001V68.6453V68.5906V68.5358V68.481V68.4263V68.3715V68.3167V68.262V68.2072V68.1524V68.0977V68.0429V67.9881V67.9334V67.8786V67.8238V67.7691V67.7143V67.6595V67.6048V67.55V67.4952V67.4405V67.3857V67.3309V67.2762V67.2214V67.1666V67.1119V67.0571V67.0023V66.9476V66.8928V66.838V66.7833V66.7285V66.6737V66.6189V66.5642V66.5094V66.4546V66.3999V66.3451V66.2903V66.2356V66.1808V66.126V66.0712V66.0165V65.9617V65.9069V65.8522V65.7974V65.7426V65.6878V65.6331V65.5783V65.5235V65.4688V65.414V65.3592V65.3044V65.2497V65.1949V65.1401V65.0853V65.0306V64.9758V64.921V64.8662V64.8115V64.7567V64.7019V64.6472V64.5924V64.5376V64.4828V64.4281V64.3733V64.3185V64.2637V64.209V64.1542V64.0994V64.0446V63.9899V63.9351V63.8803V63.8255V63.7708V63.716V63.6612V63.6064V63.5516V63.4969V63.4421V63.3873V63.3325V63.2778V63.223V63.1682V63.1134V63.0587V63.0039V62.9491V62.8943V62.8395V62.7848V62.73V62.6752V62.6204V62.5657V62.5109V62.4561V62.4013V62.3465V62.2918V62.237V62.1822V62.1274V62.0727V62.0179V61.9631V61.9083V61.8535V61.7988V61.744V61.6892V61.6344V61.5796V61.5249V61.4701V61.4153V61.3605V61.3057V61.251V61.1962V61.1414V61.0866V61.0318V60.9771V60.9223V60.8675V60.8127V60.7579V60.7032V60.6484V60.5936V60.5388V60.484V60.4293V60.3745V60.3197V60.2649V60.2101V60.1554V60.1006V60.0458V59.991V59.9362V59.8815V59.8267V59.7719V59.7171V59.6623V59.6075V59.5528V59.498V59.4432V59.3884V59.3336V59.2789V59.2241V59.1693V59.1145V59.0597V59.0049V58.9502V58.8954V58.8406V58.7858V58.731V58.6763V58.6215V58.5667V58.5119V58.4571V58.4023V58.3476V58.2928V58.238V58.1832V58.1284V58.0737V58.0189V57.9641V57.9093V57.8545V57.7997V57.745V57.6902V57.6354V57.5806V57.5258V57.471V57.4163V57.3615V57.3067V57.2519V57.1971V57.1423V57.0876V57.0328V56.978V56.9232V56.8684V56.8137V56.7589V56.7041V56.6493V56.5945V56.5397V56.485V56.4302V56.3754V56.3206V56.2658V56.211V56.1563V56.1015V56.0467V55.9919V55.9371V55.8824V55.8276V55.7728V55.718V55.6632V55.6084V55.5537V55.4989V55.4441V55.3893V55.3345V55.2797V55.225V55.1702V55.1154V55.0606V55.0058V54.951V54.8963V54.8415V54.7867V54.7319V54.6771V54.6224V54.5676V54.5128V54.458V54.4032V54.3484V54.2937V54.2389V54.1841V54.1293V54.0745V54.0198V53.965V53.9102V53.8554V53.8006V53.7458V53.6911V53.6363V53.5815V53.5267V53.4719V53.4172V53.3624V53.3076V53.2528V53.198V53.1433V53.0885V53.0337V52.9789V52.9241V52.8693V52.8146V52.7598V52.705V52.6502V52.5954V52.5407V52.4859V52.4311V52.3763V52.3215V52.2668V52.212V52.1572V52.1024V52.0476V51.9929V51.9381V51.8833V51.8285V51.7737V51.719V51.6642V51.6094V51.5546V51.4998V51.4451V51.3903V51.3355V51.2807V51.2259V51.1712V51.1164V51.0616V51.0068V50.9521V50.8973V50.8425V50.7877V50.7329V50.6782V50.6234V50.5686V50.5138V50.459V50.4043V50.3495V50.2947V50.2399V50.1852V50.1304V50.0756V50.0208V49.966V49.9113V49.8565V49.8017V49.7469V49.6922V49.6374V49.5826V49.5278V49.4731V49.4183V49.3635V49.3087V49.254V49.1992V49.1444V49.0896V49.0349V48.9801V48.9253V48.8705V48.8158V48.761V48.7062V48.6514V48.5967V48.5419V48.4871V48.4323V48.3776V48.3228V48.268V48.2132V48.1585V48.1037V48.0489V47.9941V47.9394V47.8846V47.8298V47.7751V47.7203V47.6655V47.6107V47.556V47.5012V47.4464V47.3916V47.3369V47.2821V47.2273V47.1726V47.1178V47.063V47.0082V46.9535V46.8987V46.8439V46.7892V46.7344V46.6796V46.6249V46.5701V46.5153V46.4605V46.4058V46.351V46.2962V46.2415V46.1867V46.1319V46.0772V46.0224V45.9676V45.9129V45.8581V45.8033V45.7485V45.6938V45.639V45.5842V45.5295V45.4747V45.4199V45.3652V45.3104V45.2556V45.2009V45.1461V45.0913V45.0366V44.9818V44.9271V44.8723V44.8175V44.7628V44.708V44.6532V44.5985V44.5437V44.4889V44.4342V44.3794V44.3246V44.2699V44.2151V44.1604V44.1056V44.0508V43.9961V43.9413V43.8865V43.8318V43.777V43.7223V43.6675V43.6127V43.558V43.5032V43.4484V43.3937V43.3389V43.2842V43.2294V43.1746V43.1199V43.0651V43.0104V42.9556V42.9008V42.8461V42.7913V42.7366V42.6818V42.6271V42.5723V42.5175V69.5172ZM76.8642 11.0302C76.8869 11.0551 76.9103 11.0796 76.9338 11.1041C76.9589 11.1303 76.984 11.1565 77.0084 11.1834C76.9998 11.2177 76.9998 11.2435 76.9998 11.2778L76.8642 11.0302ZM59.6074 24.5898C57.2304 28.5881 56.0682 32.9249 55.9865 37.542C55.9865 37.5426 55.9865 37.5431 55.9865 37.5436L57.4863 37.57C57.478 37.9835 57.6842 37.983 57.9595 37.9824C57.9702 37.9824 57.981 37.9823 57.9919 37.9823H74.0175C74.6174 37.9823 74.626 37.9823 74.626 38.5836V70.4503C74.626 70.7311 74.626 70.8728 74.5551 70.9444C74.4829 71.0172 74.3373 71.0172 74.0432 71.0172H42.1205C42.0188 71.0172 41.9224 71.0118 41.806 71.0053C41.7753 71.0036 41.7431 71.0018 41.7092 71L59.6074 24.5898Z" stroke="#5027B5" stroke-width="3"/>
<path d="M31.485 39.4596C27.6966 39.4692 23.9115 39.4677 20.13 39.4662C18.753 39.4657 17.3765 39.4652 16.0004 39.4652H15.9994H15.9984H15.9974H15.9964H15.9954H15.9944H15.9934H15.9924H15.9914H15.9904H15.9894H15.9884H15.9874H15.9864H15.9854H15.9844H15.9834H15.9824H15.9814H15.9804H15.9794H15.9784H15.9774H15.9764H15.9754H15.9744H15.9734H15.9724H15.9714H15.9704H15.9694H15.9684H15.9674H15.9664H15.9654H15.9644H15.9634H15.9624H15.9614H15.9604H15.9594H15.9584H15.9574H15.9564H15.9554H15.9544H15.9534H15.9524H15.9514H15.9504H15.9494H15.9484H15.9474H15.9465H15.9455H15.9445H15.9435H15.9425H15.9415H15.9405H15.9395H15.9385H15.9375H15.9365H15.9355H15.9345H15.9335H15.9325H15.9315H15.9305H15.9295H15.9286H15.9276H15.9266H15.9256H15.9246H15.9236H15.9226H15.9216H15.9206H15.9196H15.9186H15.9176H15.9166H15.9157H15.9147H15.9137H15.9127H15.9117H15.9107H15.9097H15.9087H15.9077H15.9067H15.9057H15.9047H15.9038H15.9028H15.9018H15.9008H15.8998H15.8988H15.8978H15.8968H15.8958H15.8948H15.8939H15.8929H15.8919H15.8909H15.8899H15.8889H15.8879H15.8869H15.8859H15.8849H15.884H15.883H15.882H15.881H15.88H15.879H15.878H15.877H15.876H15.8751H15.8741H15.8731H15.8721H15.8711H15.8701H15.8691H15.8681H15.8672H15.8662H15.8652H15.8642H15.8632H15.8622H15.8612H15.8602H15.8592H15.8583H15.8573H15.8563H15.8553H15.8543H15.8533H15.8523H15.8513H15.8504H15.8494H15.8484H15.8474H15.8464H15.8454H15.8444H15.8434H15.8425H15.8415H15.8405H15.8395H15.8385H15.8375H15.8365H15.8355H15.8346H15.8336H15.8326H15.8316H15.8306H15.8296H15.8286H15.8276H15.8267H15.8257H15.8247H15.8237H15.8227H15.8217H15.8207H15.8197H15.8188H15.8178H15.8168H15.8158H15.8148H15.8138H15.8128H15.8118H15.8109H15.8099H15.8089H15.8079H15.8069H15.8059H15.8049H15.8039H15.8029H15.802H15.801H15.8H15.799H15.798H15.797H15.796H15.795H15.7941H15.7931H15.7921H15.7911H15.7901H15.7891H15.7881H15.7871H15.7861H15.7852H15.7842H15.7832H15.7822H15.7812H15.7802H15.7792H15.7782H15.7772H15.7763H15.7753H15.7743H15.7733H15.7723H15.7713H15.7703H15.7693H15.7683H15.7674H15.7664H15.7654H15.7644H15.7634H15.7624H15.7614H15.7604H15.7594H15.7584H15.7574H15.7565H15.7555H15.7545H15.7535H15.7525H15.7515H15.7505H15.7495H15.7485H15.7475H15.7465H15.7456H15.7446H15.7436H15.7426H15.7416H15.7406H15.7396H15.7386H15.7376H15.7366H15.7356H15.7346H15.7336H15.7326H15.7317H15.7307H15.7297H15.7287H15.7277H15.7267H15.7257H15.7247H15.7237H15.7227H15.7217H15.7207H15.7197H15.7187H15.7177H15.7167H15.7157H15.7148H15.7138H15.7128H15.7118H15.7108H15.7098H15.7088H15.7078H15.7068H15.7058H15.7048H15.7038H15.7028H15.7018H15.7008H15.6998H15.6988H15.6978H15.6968H15.6958H15.6948H15.6938H15.6928H15.6918H15.6908H15.6898H15.6888H15.6878H15.6868H15.6858H15.6848H15.6838H15.6828H15.6818H15.6808H15.6798H15.6788H15.6778H15.6768H15.6758H15.6748H15.6738H15.6728H15.6718H15.6708H15.6698H15.6688H15.6678H15.6668H15.6658H15.6648H15.6638H15.6628H15.6618H15.6608H15.6598H15.6588H15.6578H15.6568H15.6557H15.6547H15.6537H15.6527H15.6517H15.6507H15.6497H15.6487H15.6477H15.6467H15.6457H15.6447H15.6437H15.6427H15.6417H15.6406H15.6396H15.6386H15.6376H15.6366H15.6356H15.6346H15.6336H15.6326H15.6316H15.6305H15.6295H15.6285H15.6275H15.6265H15.6255H15.6245H15.6235H15.6225H15.6214H15.6204H15.6194H15.6184H15.6174H15.6164H15.6154H15.6143H15.6133H15.6123H15.6113H15.6103H15.6093H15.6082H15.6072H15.6062H15.6052H15.6042H15.6032H15.6021H15.6011H15.6001H15.5991H15.5981H15.5971H15.596H15.595H15.594H15.593H15.592H15.5909H15.5899H15.5889H15.5879H15.5868H15.5858H15.5848H15.5838H15.5828H15.5817H15.5807H15.5797H15.5787H15.5776H15.5766H15.5756H15.5746H15.5735H15.5725H15.5715H15.5705H15.5694H15.5684H15.5674H15.5664H15.5653H15.5643H15.5633H15.5622H15.5612H15.5602H15.5592H15.5581H15.5571H15.5561H15.555H15.554H15.553H15.5519H15.5509H15.5499H15.5488H15.5478H15.5468H15.5457H15.5447H15.5437H15.5426H15.5416H15.5406H15.5395H15.5385H15.5375H15.5364H15.5354H15.5343H15.5333H15.5323H15.5312H15.5302H15.5292H15.5281H15.5271H15.526H15.525H15.524H15.5229H15.5219H15.5208H15.5198H15.5187H15.5177H15.5167H15.5156H15.5146H15.5135H15.5125H15.5114H15.5104H15.5093H15.5083H15.5072H15.5062H15.5052H15.5041H15.5031H15.502H15.501H15.4999H15.4989H15.4978H15.4968H15.4957H15.4947H15.4936H15.4926H15.4915H15.4904H15.4894H15.4883H15.4873H15.4862H13.9862V37.9652C13.9862 37.9268 13.9856 37.9025 13.9847 37.8674C13.9843 37.8508 13.9838 37.8316 13.9833 37.8074C13.9822 37.7535 13.9804 37.6545 13.9895 37.5369C14.0985 35.4211 14.4131 33.3136 14.9723 31.2436C16.433 25.8244 19.3542 21.3225 23.3405 17.5425L31.485 39.4596ZM31.485 39.4596C31.4773 49.0577 31.4773 58.6632 31.4773 68.26V68.2652V68.2704V68.2755V68.2807V68.2859V68.2911V68.2963V68.3015V68.3066V68.3118V68.317V68.3222V68.3274V68.3326V68.3377V68.3429V68.3481V68.3533V68.3585V68.3637V68.3689V68.374V68.3792V68.3844V68.3896V68.3948V68.4V68.4051V68.4103V68.4155V68.4207V68.4259V68.4311V68.4362V68.4414V68.4466V68.4518V68.457V68.4622V68.4674V68.4725V68.4777V68.4829V68.4881V68.4933V68.4985V68.5037V68.5089V68.514V68.5192V68.5244V68.5296V68.5348V68.54V68.5452V68.5503V68.5555V68.5607V68.5659V68.5711V68.5763V68.5815V68.5866V68.5918V68.597V68.6022V68.6074V68.6126V68.6178V68.623V68.6282V68.6333V68.6385V68.6437V68.6489V68.6541V68.6593V68.6645V68.6697V68.6749V68.68V68.6852V68.6904V68.6956V68.7008V68.706V68.7112V68.7164V68.7216V68.7268V68.732V68.7372V68.7423V68.7475V68.7527V68.7579V68.7631V68.7683V68.7735V68.7787V68.7839V68.7891V68.7943V68.7995V68.8047V68.8099V68.815V68.8202V68.8254V68.8306V68.8358V68.841V68.8462V68.8514V68.8566V68.8618V68.867V68.8722V68.8774V68.8826V68.8878V68.893V68.8982V68.9034V68.9086V68.9138V68.919V68.9242V68.9294V68.9346V68.9398V68.945V68.9502V68.9554V68.9606V68.9658V68.971V68.9762V68.9814V68.9866V68.9918V68.997V69.0022V69.0074V69.0126V69.0178V69.023V69.0282V69.0334V69.0386V69.0438V69.049V69.0543V69.0595V69.0647V69.0699V69.0751V69.0803V69.0855V69.0907V69.0959V69.1011V69.1063V69.1115V69.1168V69.122V69.1272V69.1324V69.1376V69.1428V69.148V69.1532V69.1584V69.1637V69.1689V69.1741V69.1793V69.1845V69.1897V69.1949V69.2002V69.2054V69.2106V69.2158V69.221V69.2262V69.2315V69.2367V69.2419V69.2471V69.2523V69.2575V69.2628V69.268V69.2732V69.2784V69.2836V69.2889V69.2941V69.2993V69.3045V69.3098V69.315V69.3202V69.3254V69.3307V69.3359V69.3411V69.3463V69.3516V69.3568V69.362V69.3672V69.3725V69.3777V69.3829V69.3881V69.3934V69.3986V69.4038V69.4091V69.4143V69.4195V69.4248V69.43V69.4352V69.4405V69.4457V69.4509V69.4562V69.4571M31.485 39.4596L31.4773 69.4571M31.4773 69.4571H31.4349H31.3706H31.3063H31.2421H31.1778H31.1136H31.0493H30.985H30.9208H30.8565H30.7923H30.728H30.6638H30.5995H30.5353H30.471H30.4067H30.3425H30.2782H30.214H30.1497H30.0855H30.0212H29.957H29.8927H29.8285H29.7642H29.7H29.6357H29.5715H29.5072H29.443H29.3787H29.3145H29.2502H29.186H29.1217H29.0575H28.9932H28.929H28.8648H28.8005H28.7363H28.672H28.6078H28.5435H28.4793H28.415H28.3508H28.2866H28.2223H28.1581H28.0938H28.0296H27.9653H27.9011H27.8369H27.7726H27.7084H27.6441H27.5799H27.5157H27.4514H27.3872H27.3229H27.2587H27.1945H27.1302H27.066H27.0017H26.9375H26.8733H26.809H26.7448H26.6805H26.6163H26.5521H26.4878H26.4236H26.3594H26.2951H26.2309H26.1666H26.1024H26.0382H25.9739H25.9097H25.8455H25.7812H25.717H25.6528H25.5885H25.5243H25.46H25.3958H25.3316H25.2673H25.2031H25.1389H25.0746H25.0104H24.9462H24.8819H24.8177H24.7534H24.6892H24.625H24.5607H24.4965H24.4323H24.368H24.3038H24.2396H24.1753H24.1111H24.0468H23.9826H23.9184H23.8541H23.7899H23.7257H23.6614H23.5972H23.533H23.4687H23.4045H23.3402H23.276H23.2118H23.1475H23.0833H23.0191H22.9548H22.8906H22.8263H22.7621H22.6979H22.6336H22.5694H22.5051H22.4409H22.3767H22.3124H22.2482H22.184H22.1197H22.0555H21.9912H21.927H21.8627H21.7985H21.7343H21.67H21.6058H21.5415H21.4773H21.4131H21.3488H21.2846H21.2203H21.1561H21.0918H21.0276H20.9634H20.8991H20.8349H20.7706H20.7064H20.6421H20.5779H20.5136H20.4494H20.3851H20.3209H20.2567H20.1924H20.1282H20.0639H19.9997H19.9354H19.8712H19.8069H19.7427H19.6784H19.6142H19.5499H19.4857H19.4214H19.3572H19.2929H19.2286H19.1644H19.1001H19.0359H18.9716H18.9074H18.8431H18.7789H18.7146H18.6504H18.5861H18.5218H18.4576H18.3933H18.3291H18.2648H18.2005H18.1363H18.072H18.0078H17.9435H17.8792H17.815H17.7507H17.6865H17.6222H17.5579H17.4937H17.4294H17.3651H17.3009H17.2366H17.1723H17.1081H17.0438H16.9795H16.9152H16.851H16.7867H16.7224H16.6582H16.5939H16.5296H16.4653H16.4011H16.3368H16.2725H16.2082H16.144H16.0797H16.0154H15.9511H15.8868H15.8226H15.7583H15.694H15.6297H15.5654H15.5012H15.4369H15.3726H15.3083H15.244H15.1797H15.1154H15.0512H14.9869H14.9226H14.8583H14.794H14.7297H14.6654H14.6011H14.5368H14.4725H14.4082H14.3439H14.2796H14.2153H14.151H14.0867H14.0224H13.9581H13.8938H13.8295H13.7652H13.7009H13.6366H13.5723H13.508H13.4437H13.3794H13.3151H13.2508H13.1865H13.1222H13.0578H12.9935H12.9292H12.8649H12.8006H12.7363H12.672H12.6076H12.5433H12.479H12.4147H12.3504H12.286H12.2217H12.1574H12.0931H12.0287H11.9644H11.9001H11.8358H11.7714H11.7071H11.6428H11.5784H11.5141H11.4498H11.3854H11.3211H11.2568H11.1924H11.1281H11.0637H10.9994H10.9351H10.8707H10.8064H10.742H10.6777H10.6133H10.549H10.4846H10.4203H10.3559H10.2916H10.2272H10.1629H10.0985H10.0342H9.96981H9.90545H9.84109H9.77673H9.71237H9.64801H9.58365H9.51928H9.45492H9.39055H9.32618H9.26181H9.19744H9.13307H9.0687H9.00432H8.93995H8.87558H8.8112H8.74682H8.68244H8.61806H8.55368H8.4893H8.42491H8.36053H8.29614H8.23175H8.16737H8.10297H8.03858H7.97419H7.9098H7.8454H7.78101H7.71661H7.65221H7.58781H7.52341H7.45901H7.39461H7.3302H7.2658H7.20139H7.13698H7.07257H7.00816H6.94375H6.87934H6.81492H6.75051H6.68609H6.62167H6.55725H6.49283H6.42841H6.36399H6.29956H6.23514H6.17071H6.10628H6.04185H5.97742H5.91299H5.84855H5.78412H5.71968H5.65524H5.5908H5.52636H5.46192H5.39747H5.33303H5.26858H5.20414H5.13969H5.07524H5.01078H4.94633H4.88188H4.81742H4.75296H4.6885H4.62404H4.55958H4.49512H4.43065H4.36618H4.30172H4.23725H4.17278H4.1083H4.04383H3.97936H3.91488H3.8504H3.78592H3.72144H3.65696H3.59247H3.52799H3.4635H3.39901H3.33452H3.27003H3.20554H3.14104H3.07654H3.01205H2.94755H2.88305H2.81854H2.75404H2.68953H2.62503H2.56052H2.49601H2.43149H2.36698H2.30247H2.23795H2.17343H2.10891H2.04439H1.97986H1.91534H1.85081H1.78628H1.72175H1.65722H1.59269H1.54339H31.4773ZM32.5412 39.4566C32.5443 39.4566 32.5428 39.4567 32.5374 39.4566C32.5387 39.4566 32.5399 39.4566 32.5412 39.4566Z" stroke="#5027B5" stroke-width="3"/>
</g>
<defs>
<clipPath id="clip0_9_10469">
<rect width="77" height="71" fill="white"/>
</clipPath>
</defs>
</svg>
