<svg width="160" height="44" viewBox="0 0 160 44" fill="none" xmlns="http://www.w3.org/2000/svg">
<path d="M49.1367 16.0417L35.3467 2.28167C33.8834 0.82 31.8967 0 29.8267 0C27.7567 0 25.77 0.82 24.3067 2.28167C22.8417 3.74333 22.02 5.725 22.02 7.79C22.02 9.85667 22.8417 11.8383 24.3067 13.3L25.9834 14.9733L36.0484 25.0183C37.5567 26.5217 38.66 28.38 39.2584 30.4217C39.855 32.4633 39.9267 34.6217 39.4667 36.6983L49.0834 27.1017L49.1317 27.0567C50.595 25.5967 51.4184 23.6167 51.4184 21.55C51.42 19.485 50.6 17.5033 49.1367 16.0417Z" fill="#4D4DDB"/>
<path d="M25.4333 28.0717L15.3683 18.0267C13.8617 16.525 12.7567 14.665 12.16 12.6233C11.5617 10.5817 11.49 8.42335 11.9517 6.34668L2.33333 15.9433L2.28667 15.9883C0.821667 17.45 0 19.4317 0 21.4967C0 23.5633 0.821667 25.545 2.28667 27.0067L16.075 40.7667C17.5383 42.2283 19.525 43.0483 21.595 43.0483C23.6667 43.0483 25.6517 42.2283 27.115 40.7667C28.58 39.305 29.4017 37.3233 29.4017 35.2583C29.4017 33.1917 28.58 31.21 27.115 29.7483L25.4333 28.0717Z" fill="#F7681C"/>
<path d="M71.3536 16.2424C71.2202 16.4607 71.0836 16.6207 70.9469 16.7224C70.8086 16.8207 70.6302 16.869 70.4136 16.869C70.2036 16.869 69.9802 16.7957 69.7402 16.649C69.5002 16.5024 69.2169 16.3457 68.8936 16.1757C68.5736 16.0074 68.2036 15.849 67.7869 15.7024C67.3736 15.5557 66.8869 15.4824 66.3269 15.4824C65.3436 15.4824 64.6069 15.7024 64.1136 16.1424C63.6236 16.579 63.3802 17.1524 63.3802 17.8624C63.3802 18.3157 63.5136 18.6924 63.7802 18.989C64.0502 19.2874 64.4069 19.5457 64.8469 19.7624C65.2869 19.9807 65.7836 20.1757 66.3402 20.349C66.9002 20.519 67.4736 20.7057 68.0602 20.909C68.6469 21.109 69.2169 21.3474 69.7736 21.6224C70.3336 21.894 70.8336 22.239 71.2736 22.6557C71.7136 23.074 72.0669 23.5824 72.3336 24.1824C72.6036 24.7824 72.7402 25.5124 72.7402 26.369C72.7402 27.3074 72.5752 28.1857 72.2469 29.0024C71.9219 29.8207 71.4536 30.5357 70.8402 31.149C70.2269 31.759 69.4669 32.239 68.5602 32.589C67.6569 32.9357 66.6352 33.109 65.4936 33.109C64.8402 33.109 64.1886 33.0424 63.5402 32.909C62.8952 32.7757 62.2702 32.5924 61.6669 32.3557C61.0669 32.1207 60.5019 31.839 59.9736 31.509C59.4436 31.1757 58.9819 30.8074 58.5869 30.4024L59.8336 28.389C59.9352 28.239 60.0702 28.114 60.2402 28.0157C60.4136 27.914 60.5952 27.8624 60.7869 27.8624C61.0402 27.8624 61.3086 27.959 61.5936 28.149C61.8769 28.3357 62.2036 28.5424 62.5736 28.769C62.9419 28.9957 63.3686 29.2057 63.8536 29.3957C64.3419 29.5824 64.9269 29.6757 65.6069 29.6757C66.5969 29.6757 67.3636 29.449 67.9069 28.9957C68.4536 28.5424 68.7269 27.8674 68.7269 26.969C68.7269 26.449 68.5902 26.029 68.3202 25.709C68.0536 25.3857 67.7019 25.114 67.2669 24.8957C66.8302 24.679 66.3336 24.4924 65.7736 24.3357C65.2169 24.1807 64.6469 24.009 64.0602 23.8224C63.4736 23.6324 62.9002 23.4057 62.3402 23.1424C61.7836 22.8757 61.2886 22.5257 60.8536 22.089C60.4169 21.654 60.0636 21.1157 59.7936 20.4757C59.5269 19.8324 59.3936 19.0324 59.3936 18.0757C59.3936 17.3124 59.5436 16.569 59.8469 15.849C60.1486 15.129 60.5936 14.4924 61.1802 13.9357C61.7669 13.3757 62.4869 12.9274 63.3402 12.589C64.1969 12.2474 65.1802 12.0757 66.2869 12.0757C67.5269 12.0757 68.6736 12.2674 69.7269 12.649C70.7802 13.0324 71.6702 13.5624 72.4002 14.2424L71.3536 16.2424Z" fill="white"/>
<path d="M79.2053 11.7356V23.7356H79.8587C80.102 23.7356 80.2953 23.7006 80.4387 23.6289C80.5803 23.5589 80.722 23.4273 80.8653 23.2356L84.0987 18.9289C84.2587 18.7123 84.4387 18.5473 84.6387 18.4356C84.842 18.3206 85.102 18.2623 85.4187 18.2623H88.992L84.792 23.5889C84.4587 24.0339 84.0753 24.3856 83.6453 24.6423C83.862 24.7939 84.052 24.9689 84.212 25.1689C84.372 25.3656 84.527 25.5873 84.6787 25.8356L89.2053 32.8823H85.6853C85.382 32.8823 85.122 32.8339 84.9053 32.7356C84.687 32.6339 84.507 32.4556 84.3653 32.2023L81.0787 26.8289C80.9453 26.5989 80.807 26.4523 80.6653 26.3889C80.522 26.3223 80.3087 26.2889 80.0253 26.2889H79.2053V32.8823H75.292V11.7356H79.2053Z" fill="white"/>
<path d="M104.315 18.2622L96.4349 36.8089C96.3099 37.0755 96.1583 37.2722 95.9816 37.4022C95.8083 37.5355 95.5316 37.6022 95.1549 37.6022H92.2483L95.0149 31.7022L89.1416 18.2622H92.5749C92.8849 18.2622 93.1249 18.3339 93.2949 18.4755C93.4683 18.6139 93.5916 18.7789 93.6683 18.9689L96.4483 25.9622C96.5499 26.2339 96.6416 26.5089 96.7216 26.7889C96.8016 27.0689 96.8783 27.3472 96.9549 27.6222C97.1283 27.0622 97.3216 26.5055 97.5349 25.9489L100.122 18.9689C100.197 18.7605 100.332 18.5922 100.528 18.4622C100.728 18.3289 100.945 18.2622 101.182 18.2622H104.315Z" fill="white"/>
<path d="M110.641 20.7956H111.474C112.176 20.7956 112.683 20.5806 112.994 20.1489L118.201 13.1822C118.444 12.8489 118.714 12.6206 119.008 12.4956C119.301 12.3672 119.661 12.3022 120.088 12.3022H123.774L117.221 20.7422C116.794 21.2889 116.354 21.6806 115.901 21.9156C116.229 22.0489 116.528 22.2222 116.794 22.4356C117.061 22.6489 117.316 22.9322 117.561 23.2822L124.281 32.8822H120.494C120.249 32.8822 120.038 32.8656 119.861 32.8289C119.688 32.7889 119.534 32.7356 119.401 32.6689C119.271 32.6022 119.158 32.5206 119.061 32.4222C118.968 32.3256 118.878 32.2089 118.794 32.0756L113.501 24.6689C113.323 24.4156 113.109 24.2356 112.861 24.1289C112.616 24.0189 112.271 23.9622 111.828 23.9622H110.641V32.8822H106.381V12.3022H110.641V20.7956Z" fill="white"/>
<path d="M129.583 18.2622V32.8822H125.67V18.2622H129.583ZM130.05 14.1022C130.05 14.4355 129.983 14.7455 129.85 15.0288C129.716 15.3088 129.538 15.5588 129.316 15.7755C129.093 15.9938 128.833 16.1655 128.536 16.2888C128.238 16.4088 127.92 16.4688 127.583 16.4688C127.258 16.4688 126.951 16.4088 126.663 16.2888C126.378 16.1655 126.126 15.9938 125.91 15.7755C125.691 15.5588 125.518 15.3088 125.39 15.0288C125.26 14.7455 125.196 14.4355 125.196 14.1022C125.196 13.7738 125.26 13.4655 125.39 13.1755C125.518 12.8872 125.691 12.6338 125.91 12.4155C126.126 12.1988 126.378 12.0288 126.663 11.9088C126.951 11.7855 127.258 11.7222 127.583 11.7222C127.92 11.7222 128.238 11.7855 128.536 11.9088C128.833 12.0288 129.093 12.1988 129.316 12.4155C129.538 12.6338 129.716 12.8872 129.85 13.1755C129.983 13.4655 130.05 13.7738 130.05 14.1022Z" fill="white"/>
<path d="M141.963 22.0623C141.593 21.6356 141.193 21.3389 140.763 21.1689C140.331 20.9956 139.876 20.9089 139.396 20.9089C138.919 20.9089 138.489 21.0006 138.103 21.1823C137.716 21.3606 137.383 21.6423 137.103 22.0289C136.823 22.4123 136.606 22.9006 136.456 23.4956C136.304 24.0923 136.229 24.8006 136.229 25.6223C136.229 26.4356 136.291 27.1273 136.416 27.6956C136.539 28.2606 136.718 28.7189 136.949 29.0689C137.179 29.4156 137.459 29.6689 137.789 29.8289C138.123 29.9856 138.491 30.0623 138.896 30.0623C139.589 30.0623 140.169 29.9256 140.636 29.6489C141.103 29.3739 141.544 28.9856 141.963 28.4823V22.0623ZM145.876 11.7356V32.8823H143.463C142.964 32.8823 142.644 32.6556 142.503 32.2023L142.176 30.9223C141.883 31.2473 141.571 31.5423 141.243 31.8089C140.918 32.0723 140.566 32.3006 140.189 32.4956C139.811 32.6873 139.404 32.8339 138.969 32.9356C138.533 33.0423 138.059 33.0956 137.549 33.0956C136.766 33.0956 136.049 32.9306 135.396 32.6023C134.743 32.2689 134.176 31.7856 133.696 31.1489C133.219 30.5089 132.849 29.7273 132.583 28.8023C132.319 27.8739 132.189 26.8139 132.189 25.6223C132.189 24.5339 132.338 23.5223 132.636 22.5889C132.933 21.6523 133.356 20.8423 133.903 20.1623C134.453 19.4789 135.116 18.9423 135.889 18.5556C136.666 18.1689 137.526 17.9756 138.469 17.9756C139.264 17.9756 139.933 18.0939 140.476 18.3289C141.023 18.5656 141.518 18.8873 141.963 19.2956V11.7356H145.876Z" fill="white"/>
<path d="M158.209 21.269C158.105 21.429 157.999 21.5456 157.889 21.6156C157.782 21.6873 157.632 21.7223 157.442 21.7223C157.255 21.7223 157.062 21.6756 156.862 21.5823C156.662 21.4856 156.439 21.3823 156.195 21.2756C155.95 21.1656 155.669 21.0623 155.349 20.969C155.032 20.8756 154.669 20.829 154.255 20.829C153.619 20.829 153.125 20.9606 152.775 21.2223C152.429 21.4806 152.255 21.8206 152.255 22.2423C152.255 22.5356 152.352 22.7823 152.549 22.9823C152.749 23.1823 153.01 23.3556 153.335 23.5023C153.664 23.649 154.035 23.7873 154.449 23.9156C154.865 24.0406 155.295 24.179 155.735 24.329C156.175 24.4806 156.602 24.6556 157.015 24.8556C157.432 25.0556 157.804 25.3056 158.129 25.6023C158.457 25.9006 158.719 26.2606 158.915 26.6823C159.115 27.1006 159.215 27.6073 159.215 28.2023C159.215 28.909 159.084 29.5656 158.822 30.169C158.564 30.769 158.184 31.2873 157.682 31.7223C157.184 32.154 156.562 32.494 155.815 32.7423C155.069 32.9856 154.209 33.109 153.235 33.109C152.732 33.109 152.235 33.064 151.742 32.9756C151.249 32.8856 150.779 32.7606 150.335 32.5956C149.895 32.4273 149.479 32.234 149.089 32.0156C148.702 31.799 148.365 31.5623 148.082 31.309L148.989 29.849C149.095 29.6756 149.225 29.5423 149.382 29.449C149.537 29.3556 149.737 29.309 149.982 29.309C150.222 29.309 150.439 29.369 150.635 29.489C150.835 29.6056 151.057 29.7323 151.302 29.869C151.545 30.0073 151.837 30.1356 152.175 30.2556C152.512 30.3723 152.93 30.429 153.429 30.429C153.805 30.429 154.132 30.3873 154.409 30.3023C154.684 30.219 154.905 30.1023 155.075 29.9556C155.244 29.809 155.369 29.6456 155.449 29.4623C155.532 29.2756 155.575 29.0823 155.575 28.8823C155.575 28.5623 155.472 28.3006 155.269 28.0956C155.064 27.8923 154.797 27.714 154.469 27.5623C154.144 27.4123 153.769 27.2756 153.342 27.1556C152.919 27.0323 152.489 26.894 152.049 26.7423C151.609 26.5923 151.177 26.4123 150.755 26.2023C150.337 25.994 149.964 25.7323 149.635 25.4156C149.31 25.1006 149.045 24.7123 148.842 24.249C148.637 23.7823 148.535 23.219 148.535 22.5556C148.535 21.9523 148.652 21.379 148.889 20.8356C149.129 20.289 149.484 19.809 149.955 19.3956C150.425 18.979 151.012 18.6473 151.715 18.4023C152.422 18.159 153.239 18.0356 154.169 18.0356C155.209 18.0356 156.152 18.2073 157.002 18.549C157.855 18.8873 158.555 19.329 159.102 19.8756L158.209 21.269Z" fill="white"/>
</svg>
