<svg width="26" height="19" viewBox="0 0 26 19" fill="none" xmlns="http://www.w3.org/2000/svg">
<path d="M0.399902 9.6001C0.399902 8.2001 0.499902 6.9999 0.799902 5.8999C0.999902 4.7999 1.3999 3.9 1.8999 3.2C2.3999 2.5 2.9999 1.9 3.6999 1.5C4.3999 1.1 5.2999 0.899902 6.2999 0.899902C7.3999 0.899902 8.2999 1.1 8.9999 1.5C9.6999 1.9 10.3999 2.4 10.7999 3.2C11.2999 3.9 11.5999 4.7999 11.7999 5.8999C11.9999 6.9999 12.0999 8.2001 12.0999 9.6001C12.0999 11.0001 11.9999 12.2 11.6999 13.3C11.4999 14.4 11.0999 15.3 10.5999 16C10.0999 16.7 9.4999 17.3 8.7999 17.7C8.0999 18.1 7.1999 18.3 6.1999 18.3C5.0999 18.3 4.1999 18.1 3.4999 17.7C2.7999 17.3 2.0999 16.6999 1.6999 15.8999C1.1999 15.0999 0.899903 14.2 0.699903 13.2C0.499903 12.2 0.399902 10.9001 0.399902 9.6001ZM2.3999 9.6001C2.3999 10.0001 2.3999 10.4 2.3999 10.8C2.3999 11.2 2.4999 11.4999 2.4999 11.8999L9.6999 5.3999C9.3999 4.4999 8.9999 3.8 8.4999 3.3C7.9999 2.8 7.1999 2.5 6.2999 2.5C4.8999 2.5 3.8999 3.1 3.2999 4.3C2.6999 5.5 2.3999 7.2001 2.3999 9.6001ZM10.1999 9.6001C10.1999 8.8001 10.1999 7.9 10.0999 7.2L2.9999 13.7C3.2999 14.6 3.6999 15.2999 4.1999 15.8999C4.6999 16.4999 5.4999 16.7 6.2999 16.7C7.6999 16.7 8.6999 16.0999 9.2999 14.8999C9.8999 13.6999 10.1999 12.0001 10.1999 9.6001Z" fill="white"/>
<path d="M19.5002 16.6001C20.1002 16.6001 20.7002 16.5 21.3002 16.3C21.8002 16.1 22.3002 15.9001 22.7002 15.6001C23.1002 15.3001 23.4002 14.9 23.6002 14.5C23.8002 14.1 23.9002 13.6001 23.9002 13.1001C23.9002 12.0001 23.5002 11.2 22.7002 10.7C21.9002 10.2 20.9002 10 19.6002 10H18.1002V8.8L22.9002 2.8H15.7002V1.1001H25.2002V2.8L20.4002 8.3H20.8002C21.5002 8.3 22.2002 8.4001 22.8002 8.6001C23.4002 8.8001 23.9002 9.1 24.4002 9.5C24.9002 9.9 25.2002 10.2999 25.4002 10.8999C25.6002 11.4999 25.8002 12.1 25.8002 12.7C25.8002 13.6 25.6002 14.3 25.3002 15C25.0002 15.7 24.5002 16.2 23.9002 16.7C23.3002 17.2 22.6002 17.5 21.9002 17.7C21.1002 17.9 20.3002 18 19.4002 18C18.6002 18 17.9002 17.9 17.3002 17.8C16.7002 17.7 16.1002 17.5 15.7002 17.3L16.2002 15.6001C16.6002 15.8001 17.1002 15.9001 17.7002 16.1001C18.1002 16.5001 18.7002 16.6001 19.5002 16.6001Z" fill="white"/>
</svg>
