<svg width="26" height="19" viewBox="0 0 26 19" fill="none" xmlns="http://www.w3.org/2000/svg">
<path d="M0.399902 9.6001C0.399902 8.2001 0.499902 6.9999 0.799902 5.8999C0.999902 4.7999 1.3999 3.9 1.8999 3.2C2.3999 2.5 2.9999 1.9 3.6999 1.5C4.3999 1.1 5.2999 0.899902 6.2999 0.899902C7.3999 0.899902 8.2999 1.1 8.9999 1.5C9.6999 1.9 10.3999 2.4 10.7999 3.2C11.2999 3.9 11.5999 4.7999 11.7999 5.8999C11.9999 6.9999 12.0999 8.2001 12.0999 9.6001C12.0999 11.0001 11.9999 12.2 11.6999 13.3C11.4999 14.4 11.0999 15.3 10.5999 16C10.0999 16.7 9.4999 17.3 8.7999 17.7C8.0999 18.1 7.1999 18.3 6.1999 18.3C5.0999 18.3 4.1999 18.1 3.4999 17.7C2.7999 17.3 2.0999 16.6999 1.6999 15.8999C1.1999 15.0999 0.899903 14.2 0.699903 13.2C0.499903 12.2 0.399902 10.9001 0.399902 9.6001ZM2.3999 9.6001C2.3999 10.0001 2.3999 10.4 2.3999 10.8C2.3999 11.2 2.4999 11.4999 2.4999 11.8999L9.6999 5.3999C9.3999 4.4999 8.9999 3.8 8.4999 3.3C7.9999 2.8 7.1999 2.5 6.2999 2.5C4.8999 2.5 3.8999 3.1 3.2999 4.3C2.6999 5.5 2.3999 7.2001 2.3999 9.6001ZM10.1999 9.6001C10.1999 8.8001 10.1999 7.9 10.0999 7.2L2.9999 13.7C3.2999 14.6 3.6999 15.2999 4.1999 15.8999C4.6999 16.4999 5.4999 16.7 6.2999 16.7C7.6999 16.7 8.6999 16.0999 9.2999 14.8999C9.8999 13.6999 10.1999 12.0001 10.1999 9.6001Z" fill="white"/>
<path d="M19.5998 16.6003C20.1998 16.6003 20.7998 16.5001 21.2998 16.4001C21.7998 16.2001 22.1998 16.0002 22.5998 15.7002C22.9998 15.4002 23.1998 15.0002 23.3998 14.5002C23.5998 14.0002 23.6998 13.5001 23.6998 12.9001C23.6998 11.7001 23.2998 10.9003 22.4998 10.3003C21.6998 9.7003 20.5998 9.4001 19.0998 9.4001L16.7998 9.50019V1.2002H25.0998V2.9001H18.5998V7.8003H19.7998C21.5998 7.8003 22.9998 8.2003 23.9998 9.1003C24.9998 10.0003 25.4998 11.2003 25.4998 12.8003C25.4998 13.7003 25.2998 14.5002 24.9998 15.2002C24.6998 15.9002 24.2998 16.5001 23.6998 16.9001C23.1998 17.4001 22.4998 17.7002 21.7998 18.0002C21.0998 18.2002 20.1998 18.4001 19.3998 18.4001C18.8998 18.4001 18.4998 18.4003 17.9998 18.3003C17.5998 18.2003 17.1998 18.1002 16.7998 18.0002C16.3998 17.9002 16.0998 17.8002 15.8998 17.7002C15.5998 17.6002 15.3998 17.5001 15.2998 17.4001L16.0998 15.8003C16.3998 16.0003 16.7998 16.2001 17.2998 16.4001C18.0998 16.5001 18.7998 16.6003 19.5998 16.6003Z" fill="white"/>
</svg>
