<svg width="28" height="19" viewBox="0 0 28 19" fill="none" xmlns="http://www.w3.org/2000/svg">
<path d="M0.899902 9.6001C0.899902 8.2001 0.999902 6.9999 1.2999 5.8999C1.4999 4.7999 1.8999 3.9 2.3999 3.2C2.8999 2.5 3.4999 1.9 4.1999 1.5C4.8999 1.1 5.7999 0.899902 6.7999 0.899902C7.8999 0.899902 8.7999 1.1 9.4999 1.5C10.1999 1.9 10.8999 2.4 11.2999 3.2C11.7999 3.9 12.0999 4.7999 12.2999 5.8999C12.4999 6.9999 12.5999 8.2001 12.5999 9.6001C12.5999 11.0001 12.4999 12.2 12.1999 13.3C11.9999 14.4 11.5999 15.3 11.0999 16C10.5999 16.7 9.9999 17.3 9.2999 17.7C8.5999 18.1 7.6999 18.3 6.6999 18.3C5.5999 18.3 4.6999 18.1 3.9999 17.7C3.2999 17.3 2.5999 16.6999 2.1999 15.8999C1.6999 15.0999 1.3999 14.2 1.1999 13.2C0.999903 12.1 0.899902 10.9001 0.899902 9.6001ZM2.8999 9.6001C2.8999 10.0001 2.8999 10.4 2.8999 10.8C2.8999 11.2 2.9999 11.4999 2.9999 11.8999L10.1999 5.3999C9.8999 4.4999 9.4999 3.8 8.9999 3.3C8.4999 2.8 7.6999 2.5 6.7999 2.5C5.3999 2.5 4.3999 3.1 3.7999 4.3C3.1999 5.5 2.8999 7.2001 2.8999 9.6001ZM10.6999 9.6001C10.6999 8.8001 10.6999 7.9 10.5999 7.2L3.4999 13.7C3.7999 14.6 4.1999 15.2999 4.6999 15.8999C5.1999 16.4999 5.9999 16.7 6.7999 16.7C8.1999 16.7 9.1999 16.0999 9.7999 14.8999C10.3999 13.6999 10.6999 12.0001 10.6999 9.6001Z" fill="white"/>
<path d="M27.9 12.8003H24.7V18.0002H22.8V12.8003H15V11.4001L23 1.2002H24.6V11.2002H27.8V12.8003H27.9ZM22.8 4.2002L17.3 11.2002H22.8V4.2002Z" fill="white"/>
</svg>
