<svg width="26" height="19" viewBox="0 0 26 19" fill="none" xmlns="http://www.w3.org/2000/svg">
<path d="M0.399902 9.6001C0.399902 8.2001 0.499902 6.9999 0.799902 5.8999C0.999902 4.7999 1.3999 3.9 1.8999 3.2C2.3999 2.5 2.9999 1.9 3.6999 1.5C4.3999 1.1 5.2999 0.899902 6.2999 0.899902C7.3999 0.899902 8.2999 1.1 8.9999 1.5C9.6999 1.9 10.3999 2.4 10.7999 3.2C11.2999 3.9 11.5999 4.7999 11.7999 5.8999C11.9999 6.9999 12.0999 8.2001 12.0999 9.6001C12.0999 11.0001 11.9999 12.2 11.6999 13.3C11.4999 14.4 11.0999 15.3 10.5999 16C10.0999 16.7 9.4999 17.3 8.7999 17.7C8.0999 18.1 7.1999 18.3 6.1999 18.3C5.0999 18.3 4.1999 18.1 3.4999 17.7C2.7999 17.3 2.0999 16.6999 1.6999 15.8999C1.1999 15.0999 0.899903 14.2 0.699903 13.2C0.499903 12.2 0.399902 10.9001 0.399902 9.6001ZM2.3999 9.6001C2.3999 10.0001 2.3999 10.4 2.3999 10.8C2.3999 11.2 2.4999 11.4999 2.4999 11.8999L9.6999 5.3999C9.3999 4.4999 8.9999 3.8 8.4999 3.3C7.9999 2.8 7.1999 2.5 6.2999 2.5C4.8999 2.5 3.8999 3.1 3.2999 4.3C2.6999 5.5 2.3999 7.2001 2.3999 9.6001ZM10.1999 9.6001C10.1999 8.8001 10.1999 7.9 10.0999 7.2L2.9999 13.7C3.2999 14.6 3.6999 15.2999 4.1999 15.8999C4.6999 16.4999 5.4999 16.7 6.2999 16.7C7.6999 16.7 8.6999 16.0999 9.2999 14.8999C9.8999 13.6999 10.1999 12.0001 10.1999 9.6001Z" fill="white"/>
<path d="M16.5001 16.3H20.3001V3.7L16.5001 6.39989L15.6001 5L20.9001 1.2H22.2001V16.3H25.9001V18H16.6001V16.3H16.5001Z" fill="white"/>
</svg>
