<svg width="1920" height="1086" viewBox="0 0 1920 1086" fill="none" xmlns="http://www.w3.org/2000/svg">
<g opacity="0.25" clip-path="url(#clip0_101_26)">
<path d="M1920 603C1909.5 603 1904.25 597.097 1899.65 592.178C1895.39 587.587 1891.78 583.324 1884.23 583.324C1876.68 583.324 1873.08 587.259 1868.81 592.178C1864.22 597.425 1858.96 603 1848.46 603C1837.96 603 1832.71 597.097 1828.12 592.178C1823.85 587.587 1820.24 583.324 1812.7 583.324C1805.15 583.324 1801.54 587.259 1797.27 592.178C1792.68 597.425 1787.43 603 1776.93 603C1766.43 603 1761.18 597.097 1756.58 592.178C1752.64 587.259 1749.04 583.324 1741.49 583.324C1733.94 583.324 1730.33 587.259 1726.07 592.178C1721.47 597.425 1716.22 603 1705.72 603C1695.22 603 1689.97 597.097 1685.37 592.178C1681.11 587.587 1677.5 583.324 1669.95 583.324C1662.4 583.324 1658.79 587.259 1654.53 592.178C1649.93 597.425 1644.68 603 1634.18 603C1623.68 603 1618.43 597.097 1613.84 592.178C1609.57 587.587 1605.96 583.324 1598.42 583.324C1590.87 583.324 1587.26 587.259 1582.99 592.178C1578.4 597.425 1573.15 603 1562.65 603C1552.15 603 1546.9 597.097 1542.3 592.178C1538.69 587.259 1534.76 583.324 1527.54 583.324C1519.99 583.324 1516.38 587.259 1512.11 592.178C1507.52 597.425 1502.27 603 1491.77 603C1481.27 603 1476.02 597.097 1471.42 592.178C1467.16 587.259 1463.55 583.324 1456 583.324V576.765C1466.5 576.765 1471.75 582.668 1476.35 587.587C1480.61 592.178 1484.22 596.441 1491.77 596.441C1499.32 596.441 1502.93 592.506 1507.19 587.587C1511.79 582.34 1517.04 576.765 1527.54 576.765C1538.04 576.765 1543.29 582.668 1547.88 587.587C1552.15 592.178 1555.76 596.441 1563.3 596.441C1570.85 596.441 1574.46 592.506 1578.73 587.587C1583.32 582.34 1588.57 576.765 1599.07 576.765C1609.57 576.765 1614.82 582.668 1619.42 587.587C1623.68 592.178 1627.29 596.441 1634.84 596.441C1642.39 596.441 1646 592.506 1650.26 587.587C1654.86 582.34 1660.11 576.765 1670.61 576.765C1681.11 576.765 1686.36 582.668 1690.95 587.587C1695.22 592.178 1698.83 596.441 1706.38 596.441C1713.92 596.441 1717.53 592.506 1721.8 587.587C1726.39 582.34 1731.64 576.765 1742.14 576.765C1752.64 576.765 1757.9 582.668 1762.49 587.587C1766.76 592.178 1770.36 596.441 1777.91 596.441C1785.46 596.441 1789.07 592.506 1793.34 587.587C1797.93 582.34 1803.18 576.765 1813.68 576.765C1824.18 576.765 1829.43 582.668 1834.03 587.587C1838.29 592.178 1841.9 596.441 1849.45 596.441C1857 596.441 1860.61 592.506 1864.87 587.587C1869.47 582.34 1874.72 576.765 1885.22 576.765C1895.72 576.765 1900.97 582.668 1905.56 587.587C1909.83 592.178 1913.44 596.441 1920.98 596.441V603H1920Z" fill="#754B98"/>
<path d="M1920 570.206C1909.5 570.206 1904.25 564.303 1899.65 559.384C1895.39 554.793 1891.78 550.529 1884.23 550.529C1876.68 550.529 1873.08 554.465 1868.81 559.384C1864.22 564.631 1858.96 570.206 1848.46 570.206C1837.96 570.206 1832.71 564.303 1828.12 559.384C1823.85 554.793 1820.24 550.529 1812.7 550.529C1805.15 550.529 1801.54 554.465 1797.27 559.384C1792.68 564.631 1787.43 570.206 1776.93 570.206C1766.43 570.206 1761.18 564.303 1756.58 559.384C1752.64 554.465 1749.04 550.529 1741.49 550.529C1733.94 550.529 1730.33 554.465 1726.07 559.384C1721.47 564.631 1716.22 570.206 1705.72 570.206C1695.22 570.206 1689.97 564.303 1685.37 559.384C1681.11 554.793 1677.5 550.529 1669.95 550.529C1662.4 550.529 1658.79 554.465 1654.53 559.384C1649.93 564.631 1644.68 570.206 1634.18 570.206C1623.68 570.206 1618.43 564.303 1613.84 559.384C1609.57 554.793 1605.96 550.529 1598.42 550.529C1590.87 550.529 1587.26 554.465 1582.99 559.384C1578.4 564.631 1573.15 570.206 1562.65 570.206C1552.15 570.206 1546.9 564.303 1542.3 559.384C1538.69 554.465 1534.76 550.529 1527.54 550.529C1519.99 550.529 1516.38 554.465 1512.11 559.384C1507.52 564.631 1502.27 570.206 1491.77 570.206C1481.27 570.206 1476.02 564.303 1471.42 559.384C1467.16 554.465 1463.55 550.529 1456 550.529V543.971C1466.5 543.971 1471.75 549.874 1476.35 554.793C1480.61 559.384 1484.22 563.647 1491.77 563.647C1499.32 563.647 1502.93 559.712 1507.19 554.793C1511.79 549.546 1517.04 543.971 1527.54 543.971C1538.04 543.971 1543.29 549.874 1547.88 554.793C1552.15 559.384 1555.76 563.647 1563.3 563.647C1570.85 563.647 1574.46 559.712 1578.73 554.793C1583.32 549.546 1588.57 543.971 1599.07 543.971C1609.57 543.971 1614.82 549.874 1619.42 554.793C1623.68 559.384 1627.29 563.647 1634.84 563.647C1642.39 563.647 1646 559.712 1650.26 554.793C1654.86 549.546 1660.11 543.971 1670.61 543.971C1681.11 543.971 1686.36 549.874 1690.95 554.793C1695.22 559.384 1698.83 563.647 1706.38 563.647C1713.92 563.647 1717.53 559.712 1721.8 554.793C1726.39 549.546 1731.64 543.971 1742.14 543.971C1752.64 543.971 1757.9 549.874 1762.49 554.793C1766.76 559.384 1770.36 563.647 1777.91 563.647C1785.46 563.647 1789.07 559.712 1793.34 554.793C1797.93 549.546 1803.18 543.971 1813.68 543.971C1824.18 543.971 1829.43 549.874 1834.03 554.793C1838.29 559.384 1841.9 563.647 1849.45 563.647C1857 563.647 1860.61 559.712 1864.87 554.793C1869.47 549.546 1874.72 543.971 1885.22 543.971C1895.72 543.971 1900.97 549.874 1905.56 554.793C1909.83 559.384 1913.44 563.647 1920.98 563.647V570.206H1920Z" fill="#754B98"/>
<path d="M1920 537.412C1909.5 537.412 1904.25 531.509 1899.65 526.59C1895.39 521.999 1891.78 517.735 1884.23 517.735C1876.68 517.735 1873.08 521.671 1868.81 526.59C1864.22 531.837 1858.96 537.412 1848.46 537.412C1837.96 537.412 1832.71 531.509 1828.12 526.59C1823.85 521.999 1820.24 517.735 1812.7 517.735C1805.15 517.735 1801.54 521.671 1797.27 526.59C1792.68 531.837 1787.43 537.412 1776.93 537.412C1766.43 537.412 1761.18 531.509 1756.58 526.59C1752.64 521.671 1749.04 517.735 1741.49 517.735C1733.94 517.735 1730.33 521.671 1726.07 526.59C1721.47 531.837 1716.22 537.412 1705.72 537.412C1695.22 537.412 1689.97 531.509 1685.37 526.59C1681.11 521.999 1677.5 517.735 1669.95 517.735C1662.4 517.735 1658.79 521.671 1654.53 526.59C1649.93 531.837 1644.68 537.412 1634.18 537.412C1623.68 537.412 1618.43 531.509 1613.84 526.59C1609.57 521.999 1605.96 517.735 1598.42 517.735C1590.87 517.735 1587.26 521.671 1582.99 526.59C1578.4 531.837 1573.15 537.412 1562.65 537.412C1552.15 537.412 1546.9 531.509 1542.3 526.59C1538.69 521.671 1534.76 517.735 1527.54 517.735C1519.99 517.735 1516.38 521.671 1512.11 526.59C1507.52 531.837 1502.27 537.412 1491.77 537.412C1481.27 537.412 1476.02 531.509 1471.42 526.59C1467.16 521.671 1463.55 517.735 1456 517.735V511.176C1466.5 511.176 1471.75 517.079 1476.35 521.999C1480.61 526.59 1484.22 530.853 1491.77 530.853C1499.32 530.853 1502.93 526.918 1507.19 521.999C1511.79 516.751 1517.04 511.176 1527.54 511.176C1538.04 511.176 1543.29 517.079 1547.88 521.999C1552.15 526.59 1555.76 530.853 1563.3 530.853C1570.85 530.853 1574.46 526.918 1578.73 521.999C1583.32 516.751 1588.57 511.176 1599.07 511.176C1609.57 511.176 1614.82 517.079 1619.42 521.999C1623.68 526.59 1627.29 530.853 1634.84 530.853C1642.39 530.853 1646 526.918 1650.26 521.999C1654.86 516.751 1660.11 511.176 1670.61 511.176C1681.11 511.176 1686.36 517.079 1690.95 521.999C1695.22 526.59 1698.83 530.853 1706.38 530.853C1713.92 530.853 1717.53 526.918 1721.8 521.999C1726.39 516.751 1731.64 511.176 1742.14 511.176C1752.64 511.176 1757.9 517.079 1762.49 521.999C1766.76 526.59 1770.36 530.853 1777.91 530.853C1785.46 530.853 1789.07 526.918 1793.34 521.999C1797.93 516.751 1803.18 511.176 1813.68 511.176C1824.18 511.176 1829.43 517.079 1834.03 521.999C1838.29 526.59 1841.9 530.853 1849.45 530.853C1857 530.853 1860.61 526.918 1864.87 521.999C1869.47 516.751 1874.72 511.176 1885.22 511.176C1895.72 511.176 1900.97 517.079 1905.56 521.999C1909.83 526.59 1913.44 530.853 1920.98 530.853V537.412H1920Z" fill="#754B98"/>
<path d="M1920 504.618C1909.5 504.618 1904.25 498.715 1899.65 493.796C1895.39 489.204 1891.78 484.941 1884.23 484.941C1876.68 484.941 1873.08 488.876 1868.81 493.796C1864.22 499.043 1858.96 504.618 1848.46 504.618C1837.96 504.618 1832.71 498.715 1828.12 493.796C1823.85 489.204 1820.24 484.941 1812.7 484.941C1805.15 484.941 1801.54 488.876 1797.27 493.796C1792.68 499.043 1787.43 504.618 1776.93 504.618C1766.43 504.618 1761.18 498.715 1756.58 493.796C1752.64 488.876 1749.04 484.941 1741.49 484.941C1733.94 484.941 1730.33 488.876 1726.07 493.796C1721.47 499.043 1716.22 504.618 1705.72 504.618C1695.22 504.618 1689.97 498.715 1685.37 493.796C1681.11 489.204 1677.5 484.941 1669.95 484.941C1662.4 484.941 1658.79 488.876 1654.53 493.796C1649.93 499.043 1644.68 504.618 1634.18 504.618C1623.68 504.618 1618.43 498.715 1613.84 493.796C1609.57 489.204 1605.96 484.941 1598.42 484.941C1590.87 484.941 1587.26 488.876 1582.99 493.796C1578.4 499.043 1573.15 504.618 1562.65 504.618C1552.15 504.618 1546.9 498.715 1542.3 493.796C1538.69 488.876 1534.76 484.941 1527.54 484.941C1519.99 484.941 1516.38 488.876 1512.11 493.796C1507.52 499.043 1502.27 504.618 1491.77 504.618C1481.27 504.618 1476.02 498.715 1471.42 493.796C1467.16 488.876 1463.55 484.941 1456 484.941V478.382C1466.5 478.382 1471.75 484.285 1476.35 489.204C1480.61 493.796 1484.22 498.059 1491.77 498.059C1499.32 498.059 1502.93 494.123 1507.19 489.204C1511.79 483.957 1517.04 478.382 1527.54 478.382C1538.04 478.382 1543.29 484.285 1547.88 489.204C1552.15 493.796 1555.76 498.059 1563.3 498.059C1570.85 498.059 1574.46 494.123 1578.73 489.204C1583.32 483.957 1588.57 478.382 1599.07 478.382C1609.57 478.382 1614.82 484.285 1619.42 489.204C1623.68 493.796 1627.29 498.059 1634.84 498.059C1642.39 498.059 1646 494.123 1650.26 489.204C1654.86 483.957 1660.11 478.382 1670.61 478.382C1681.11 478.382 1686.36 484.285 1690.95 489.204C1695.22 493.796 1698.83 498.059 1706.38 498.059C1713.92 498.059 1717.53 494.123 1721.8 489.204C1726.39 483.957 1731.64 478.382 1742.14 478.382C1752.64 478.382 1757.9 484.285 1762.49 489.204C1766.76 493.796 1770.36 498.059 1777.91 498.059C1785.46 498.059 1789.07 494.123 1793.34 489.204C1797.93 483.957 1803.18 478.382 1813.68 478.382C1824.18 478.382 1829.43 484.285 1834.03 489.204C1838.29 493.796 1841.9 498.059 1849.45 498.059C1857 498.059 1860.61 494.123 1864.87 489.204C1869.47 483.957 1874.72 478.382 1885.22 478.382C1895.72 478.382 1900.97 484.285 1905.56 489.204C1909.83 493.796 1913.44 498.059 1920.98 498.059V504.618H1920Z" fill="#754B98"/>
<path d="M1920 471.824C1909.5 471.824 1904.25 465.921 1899.65 461.001C1895.39 456.41 1891.78 452.147 1884.23 452.147C1876.68 452.147 1873.08 456.082 1868.81 461.001C1864.22 466.249 1858.96 471.824 1848.46 471.824C1837.96 471.824 1832.71 465.921 1828.12 461.001C1823.85 456.41 1820.24 452.147 1812.7 452.147C1805.15 452.147 1801.54 456.082 1797.27 461.001C1792.68 466.249 1787.43 471.824 1776.93 471.824C1766.43 471.824 1761.18 465.921 1756.58 461.001C1752.64 456.082 1749.04 452.147 1741.49 452.147C1733.94 452.147 1730.33 456.082 1726.07 461.001C1721.47 466.249 1716.22 471.824 1705.72 471.824C1695.22 471.824 1689.97 465.921 1685.37 461.001C1681.11 456.41 1677.5 452.147 1669.95 452.147C1662.4 452.147 1658.79 456.082 1654.53 461.001C1649.93 466.249 1644.68 471.824 1634.18 471.824C1623.68 471.824 1618.43 465.921 1613.84 461.001C1609.57 456.41 1605.96 452.147 1598.42 452.147C1590.87 452.147 1587.26 456.082 1582.99 461.001C1578.4 466.249 1573.15 471.824 1562.65 471.824C1552.15 471.824 1546.9 465.921 1542.3 461.001C1538.69 456.082 1534.76 452.147 1527.54 452.147C1519.99 452.147 1516.38 456.082 1512.11 461.001C1507.52 466.249 1502.27 471.824 1491.77 471.824C1481.27 471.824 1476.02 465.921 1471.42 461.001C1467.16 456.082 1463.55 452.147 1456 452.147V445.588C1466.5 445.588 1471.75 451.491 1476.35 456.41C1480.61 461.001 1484.22 465.265 1491.77 465.265C1499.32 465.265 1502.93 461.329 1507.19 456.41C1511.79 451.163 1517.04 445.588 1527.54 445.588C1538.04 445.588 1543.29 451.491 1547.88 456.41C1552.15 461.001 1555.76 465.265 1563.3 465.265C1570.85 465.265 1574.46 461.329 1578.73 456.41C1583.32 451.163 1588.57 445.588 1599.07 445.588C1609.57 445.588 1614.82 451.491 1619.42 456.41C1623.68 461.001 1627.29 465.265 1634.84 465.265C1642.39 465.265 1646 461.329 1650.26 456.41C1654.86 451.163 1660.11 445.588 1670.61 445.588C1681.11 445.588 1686.36 451.491 1690.95 456.41C1695.22 461.001 1698.83 465.265 1706.38 465.265C1713.92 465.265 1717.53 461.329 1721.8 456.41C1726.39 451.163 1731.64 445.588 1742.14 445.588C1752.64 445.588 1757.9 451.491 1762.49 456.41C1766.76 461.001 1770.36 465.265 1777.91 465.265C1785.46 465.265 1789.07 461.329 1793.34 456.41C1797.93 451.163 1803.18 445.588 1813.68 445.588C1824.18 445.588 1829.43 451.491 1834.03 456.41C1838.29 461.001 1841.9 465.265 1849.45 465.265C1857 465.265 1860.61 461.329 1864.87 456.41C1869.47 451.163 1874.72 445.588 1885.22 445.588C1895.72 445.588 1900.97 451.491 1905.56 456.41C1909.83 461.001 1913.44 465.265 1920.98 465.265V471.824H1920Z" fill="#754B98"/>
<path d="M1920 439.029C1909.5 439.029 1904.25 433.126 1899.65 428.207C1895.39 423.616 1891.78 419.353 1884.23 419.353C1876.68 419.353 1873.08 423.288 1868.81 428.207C1864.22 433.454 1858.96 439.029 1848.46 439.029C1837.96 439.029 1832.71 433.126 1828.12 428.207C1823.85 423.616 1820.24 419.353 1812.7 419.353C1805.15 419.353 1801.54 423.288 1797.27 428.207C1792.68 433.454 1787.43 439.029 1776.93 439.029C1766.43 439.029 1761.18 433.126 1756.58 428.207C1752.64 423.288 1749.04 419.353 1741.49 419.353C1733.94 419.353 1730.33 423.288 1726.07 428.207C1721.47 433.454 1716.22 439.029 1705.72 439.029C1695.22 439.029 1689.97 433.126 1685.37 428.207C1681.11 423.616 1677.5 419.353 1669.95 419.353C1662.4 419.353 1658.79 423.288 1654.53 428.207C1649.93 433.454 1644.68 439.029 1634.18 439.029C1623.68 439.029 1618.43 433.126 1613.84 428.207C1609.57 423.616 1605.96 419.353 1598.42 419.353C1590.87 419.353 1587.26 423.288 1582.99 428.207C1578.4 433.454 1573.15 439.029 1562.65 439.029C1552.15 439.029 1546.9 433.126 1542.3 428.207C1538.69 423.288 1534.76 419.353 1527.54 419.353C1519.99 419.353 1516.38 423.288 1512.11 428.207C1507.52 433.454 1502.27 439.029 1491.77 439.029C1481.27 439.029 1476.02 433.126 1471.42 428.207C1467.16 423.288 1463.55 419.353 1456 419.353V412.794C1466.5 412.794 1471.75 418.697 1476.35 423.616C1480.61 428.207 1484.22 432.471 1491.77 432.471C1499.32 432.471 1502.93 428.535 1507.19 423.616C1511.79 418.369 1517.04 412.794 1527.54 412.794C1538.04 412.794 1543.29 418.697 1547.88 423.616C1552.15 428.207 1555.76 432.471 1563.3 432.471C1570.85 432.471 1574.46 428.535 1578.73 423.616C1583.32 418.369 1588.57 412.794 1599.07 412.794C1609.57 412.794 1614.82 418.697 1619.42 423.616C1623.68 428.207 1627.29 432.471 1634.84 432.471C1642.39 432.471 1646 428.535 1650.26 423.616C1654.86 418.369 1660.11 412.794 1670.61 412.794C1681.11 412.794 1686.36 418.697 1690.95 423.616C1695.22 428.207 1698.83 432.471 1706.38 432.471C1713.92 432.471 1717.53 428.535 1721.8 423.616C1726.39 418.369 1731.64 412.794 1742.14 412.794C1752.64 412.794 1757.9 418.697 1762.49 423.616C1766.76 428.207 1770.36 432.471 1777.91 432.471C1785.46 432.471 1789.07 428.535 1793.34 423.616C1797.93 418.369 1803.18 412.794 1813.68 412.794C1824.18 412.794 1829.43 418.697 1834.03 423.616C1838.29 428.207 1841.9 432.471 1849.45 432.471C1857 432.471 1860.61 428.535 1864.87 423.616C1869.47 418.369 1874.72 412.794 1885.22 412.794C1895.72 412.794 1900.97 418.697 1905.56 423.616C1909.83 428.207 1913.44 432.471 1920.98 432.471V439.029H1920Z" fill="#754B98"/>
<path d="M1920 406.235C1909.5 406.235 1904.25 400.332 1899.65 395.413C1895.39 390.822 1891.78 386.559 1884.23 386.559C1876.68 386.559 1873.07 390.494 1868.81 395.413C1864.21 400.66 1858.96 406.235 1848.46 406.235C1837.96 406.235 1832.71 400.332 1828.12 395.413C1824.18 390.494 1820.24 386.559 1813.02 386.559C1805.48 386.559 1801.87 390.494 1797.6 395.413C1793.01 400.66 1787.76 406.235 1777.26 406.235C1766.76 406.235 1761.5 400.332 1756.91 395.413C1752.64 390.494 1749.04 386.559 1741.49 386.559C1733.94 386.559 1730.33 390.494 1726.07 395.413C1721.47 400.66 1716.22 406.235 1705.72 406.235C1695.55 406.235 1690.3 400.332 1685.7 395.413C1681.44 390.494 1677.5 386.559 1670.28 386.559C1662.73 386.559 1659.12 390.494 1654.86 395.413C1650.26 400.66 1645.01 406.235 1634.51 406.235C1624.01 406.235 1618.76 400.332 1614.17 395.413C1609.9 390.494 1606.29 386.559 1598.74 386.559C1591.2 386.559 1587.59 390.494 1583.32 395.413C1578.73 400.66 1573.48 406.235 1562.98 406.235C1552.48 406.235 1547.22 400.332 1542.63 395.413C1538.69 390.494 1534.76 386.559 1527.54 386.559C1519.99 386.559 1516.38 390.494 1512.11 395.413C1507.19 400.332 1501.94 406.235 1491.77 406.235C1481.6 406.235 1476.02 400.332 1471.42 395.413C1467.16 390.494 1463.55 386.559 1456 386.559V380C1466.5 380 1471.75 385.903 1476.35 390.822C1480.61 395.741 1484.22 399.676 1491.77 399.676C1499.32 399.676 1502.93 395.741 1507.19 390.822C1511.79 385.903 1517.04 380 1527.54 380C1538.04 380 1543.29 385.903 1547.88 390.822C1551.82 395.741 1555.76 399.676 1562.98 399.676C1570.52 399.676 1574.13 395.741 1578.4 390.822C1582.99 385.575 1588.24 380 1598.74 380C1609.24 380 1614.5 385.903 1619.09 390.822C1623.36 395.741 1626.96 399.676 1634.51 399.676C1642.06 399.676 1645.67 395.741 1649.93 390.822C1654.53 385.575 1659.78 380 1670.28 380C1680.78 380 1686.03 385.903 1690.63 390.822C1694.56 395.741 1698.5 399.676 1705.72 399.676C1713.27 399.676 1716.88 395.741 1721.14 390.822C1725.74 385.903 1730.99 380 1741.49 380C1751.99 380 1757.24 385.903 1761.83 390.822C1766.1 395.741 1769.71 399.676 1777.26 399.676C1784.8 399.676 1788.41 395.741 1792.68 390.822C1797.27 385.575 1802.52 380 1813.02 380C1823.52 380 1828.78 385.903 1833.37 390.822C1837.64 395.413 1841.24 399.676 1848.79 399.676C1856.34 399.676 1859.95 395.741 1864.21 390.822C1868.81 385.575 1874.06 380 1884.56 380C1895.06 380 1900.31 385.903 1904.91 390.822C1909.17 395.413 1912.78 399.676 1920.33 399.676V406.235H1920Z" fill="#754B98"/>
</g>
<g opacity="0.25" clip-path="url(#clip1_101_26)">
<path d="M417.104 785.078L164.887 1083.52L167.773 1085.97L419.99 787.532L417.104 785.078Z" fill="white"/>
<path d="M417.105 752.822L164.888 1051.26L167.774 1053.72L419.991 755.276L417.105 752.822Z" fill="white"/>
<path d="M417.106 720.567L164.889 1019.01L167.775 1021.46L419.992 723.02L417.106 720.567Z" fill="white"/>
<path d="M417.106 688.311L164.889 986.753L167.775 989.207L419.992 690.765L417.106 688.311Z" fill="white"/>
<path d="M417.107 656.055L164.89 954.497L167.776 956.951L419.993 658.509L417.107 656.055Z" fill="white"/>
<path d="M417.108 623.799L164.891 922.241L167.777 924.695L419.994 626.253L417.108 623.799Z" fill="white"/>
<path d="M417.109 591.544L164.892 889.986L167.778 892.439L419.995 593.997L417.109 591.544Z" fill="white"/>
<path d="M417.11 559.288L164.893 857.73L167.779 860.183L419.996 561.741L417.11 559.288Z" fill="white"/>
<path d="M417.11 527.032L164.893 825.474L167.779 827.928L419.996 529.486L417.11 527.032Z" fill="white"/>
<path d="M417.111 494.776L164.894 793.218L167.78 795.672L419.997 497.23L417.111 494.776Z" fill="white"/>
<path d="M417.112 462.521L164.895 760.963L167.78 763.416L419.998 464.974L417.112 462.521Z" fill="white"/>
<path d="M417.113 430.265L164.896 728.707L167.781 731.161L419.999 432.719L417.113 430.265Z" fill="white"/>
<path d="M417.114 398.009L164.896 696.451L167.782 698.905L420 400.463L417.114 398.009Z" fill="white"/>
</g>
<path d="M250.658 420.312L314.117 397.639L262.882 353.856L250.658 420.312Z" stroke="white" stroke-width="7.7723" stroke-miterlimit="10"/>
<path d="M107.904 354.338C102.182 354.338 96.2001 352.383 90.4784 350.428C80.2054 347.04 73.0533 345.086 68.632 349.647C67.0715 351.21 64.6008 351.21 63.1703 349.647C61.6099 348.083 61.6099 345.607 63.1703 344.174C71.3628 335.964 82.9362 339.743 93.0792 343.131C103.352 346.519 110.504 348.474 114.926 343.913C119.347 339.483 117.526 332.316 114.145 322.022C110.764 311.858 106.993 300.26 115.186 292.051C123.378 283.842 134.952 287.621 145.095 291.009C155.368 294.397 162.52 296.351 166.941 291.79C171.362 287.36 169.542 280.193 166.161 269.899C162.78 259.735 159.009 248.138 167.201 239.928C175.393 231.719 186.967 235.498 197.11 238.886C207.383 242.274 214.535 244.229 218.956 239.668C220.517 238.104 222.988 238.104 224.418 239.668C225.978 241.231 225.978 243.707 224.418 245.141C216.226 253.35 204.652 249.571 194.509 246.183C184.236 242.795 177.084 240.841 172.663 245.401C168.241 249.832 170.062 256.999 173.443 267.293C176.824 277.457 180.595 289.054 172.403 297.263C164.21 305.473 152.637 301.694 142.494 298.306C132.221 294.918 125.069 292.963 120.647 297.524C116.226 301.954 118.047 309.121 121.428 319.415C124.809 329.579 128.58 341.177 120.387 349.386C116.746 353.035 112.455 354.338 107.904 354.338Z" fill="#F7681C"/>
<path d="M270.766 150.725L256.722 136L251 155.546L270.766 150.725Z" fill="white"/>
<path d="M1796.79 409.169L1816.21 296.393L1708.93 335.934L1796.79 409.169Z" stroke="white" stroke-width="4" stroke-miterlimit="10"/>
<path d="M1664.05 236.143C1674.56 236.143 1683.09 227.604 1683.09 217.071C1683.09 206.539 1674.56 198 1664.05 198C1653.53 198 1645 206.539 1645 217.071C1645 227.604 1653.53 236.143 1664.05 236.143Z" fill="#F7681C"/>
<defs>
<clipPath id="clip0_101_26">
<rect width="464" height="223" fill="white" transform="translate(1456 380)"/>
</clipPath>
<clipPath id="clip1_101_26">
<rect width="255" height="688" fill="white" transform="translate(165 398)"/>
</clipPath>
</defs>
</svg>
